<svg width="959" height="144" viewBox="0 0 959 144" fill="none" xmlns="http://www.w3.org/2000/svg">
<path d="M958.788 0H0L1.5 10.5L5 18L10 24.5L22.5 35.5L39.1313 44.382L47.9836 47.958L56 51L72.5 55.5L78.4749 56.6426L84.3764 57.6644L88.3107 58.6861L93 59.7079L99 60.3807L109.95 61.2405L115.5 62L120.769 62.773L124 63L129.622 63.7947L134.5 64.5L139.5 65.5L150 66.5L166.998 67.8816L185.686 68.3925C184.112 68.3925 187.653 68.3925 185.686 68.3925C187.26 68.3925 194.866 68.9034 199.456 68.9034H201.424C203.183 68.9034 213.883 69.7548 219.128 69.9251L246.669 70.4359L278.144 71.4577L307.651 72.4793H323.389L341.094 73.5011L356.831 74.5228L372.568 75.5446L392.24 77.0772L406.01 78.0988L419.78 79.6314L430.6 80.6532L443.387 81.6749L460.108 83.7183L477.812 86.2726L490.599 88.316L505.353 91.8921L526.992 96.4899L542.729 100.066L556.5 103.131L568.303 106.707L575.188 109.262L582.073 111.305L587.974 112.837L590.788 113.5L590.606 113.485L595.843 114.37L600.761 115.391L604.696 116.414L607.788 117L611.288 118L615.288 119L617.288 119.5L621.288 120.5L623.788 121L626.334 121.522L629.288 122L631.252 122.544L633.788 123L636.17 123.566L639.288 124L642.072 124.587L644.288 125L646.99 125.609L649.788 126L651.788 126.5L654.538 127L657.288 127.5L659.788 128L662.788 128.5L663.711 128.674L665.788 129L671.58 129.696L673.288 130L679.788 130.717L684.788 131.5L687.288 132L690.288 132.5L693.788 133L699.12 133.782L701.288 134L706.989 134.805L713.288 135.5L716.825 135.826L718.288 136L723.71 136.848L727.788 137.5L730.595 137.869L737.304 138.5L743.804 139.5L749.304 140.5L753.304 141L757.152 141.5L765.021 141.956L780.804 142.5L790.304 143L798.463 144H823.052H861.412H873.804L885.304 143.5L894.804 143.233L908.625 141.956L913.304 141.5L918.461 140.935L923.804 140.5L931.247 139.913L939.116 138.892L946.985 137.869L954.854 136.848L958.788 135.826V0Z" fill="url(#paint0_linear_1_3)"/>
<defs>
<linearGradient id="paint0_linear_1_3" x1="860.136" y1="27.8743" x2="38.7731" y2="6.07881" gradientUnits="userSpaceOnUse">
<stop stop-color="#FB641B"/>
<stop offset="1" stop-color="#D48E1F"/>
</linearGradient>
</defs>
</svg>
