<svg width="231" height="186" viewBox="0 0 231 186" fill="none" xmlns="http://www.w3.org/2000/svg">
<g filter="url(#filter0_d_8_28)">
<path d="M81.3457 88.4033C80.7936 87.9345 79.6439 88.3242 77.8965 89.5726C77.5969 89.8874 77.3993 90.5354 77.3038 91.5168C83.4114 96.931 86.8517 99.9662 87.6247 100.623L92.5272 104.786C93.4105 105.536 94.5508 105.366 95.948 104.275C96.4758 103.889 97.1024 103.377 97.8278 102.741C98.5532 102.105 99.0689 101.689 99.3748 101.493C99.6808 101.298 100.043 100.98 100.463 100.539C100.902 100.077 101.382 98.9859 101.902 97.2647L102.702 97.4315C101.655 100.755 101.794 102.979 103.119 104.104L104.61 105.37C105.339 105.989 106.959 106.51 109.47 106.935L109.369 107.419C107.585 107.194 106.431 107.106 105.907 107.154C105.024 107.201 104.203 107.434 103.445 107.852C102.986 108.335 102.658 109.12 102.463 110.206L101.149 111.083C101.162 111.321 101.312 111.562 101.599 111.806C101.864 112.031 102.718 112.434 104.162 113.015L103.998 113.502C102.211 112.819 101.203 112.494 100.973 112.526C100.72 112.54 100.534 112.61 100.414 112.735L99.7252 113.459L98.7428 114.617C99.1844 114.992 99.7139 115.233 100.331 115.34C100.946 115.407 102.008 115.341 103.515 115.141L103.65 115.881C101.389 116.2 100.009 116.622 99.5096 117.147C99.4697 117.189 99.4208 117.261 99.363 117.364C99.3052 117.467 99.2563 117.539 99.2163 117.581L99.21 117.462C98.841 118.059 98.9768 118.63 99.6172 119.174C100.258 119.717 101.663 119.981 103.835 119.966L103.717 120.719C102.196 120.68 101.135 120.747 100.532 120.918C99.9497 121.069 99.4587 121.354 99.0592 121.773L97.651 123.253C97.1117 123.819 96.9221 125.214 97.0823 127.437L96.4514 127.471C96.3754 125.243 96.0392 123.876 95.443 123.37L94.2174 122.329C93.1132 121.392 92.5395 120.715 92.4963 120.299C92.4532 119.882 92.5073 119.511 92.6586 119.184C92.7879 118.839 92.4866 118.127 91.7546 117.05C91.0426 115.952 90.2938 114.956 89.5082 114.061L88.2668 112.723L88.3803 112.477C89.5054 113.015 90.3277 113.012 90.847 112.466C91.0468 112.256 91.1493 112.002 91.1545 111.703C91.1797 111.382 91.0487 111.101 90.7616 110.857C85.6214 106.188 82.7973 103.638 82.2894 103.207C81.7594 102.757 81.2547 102.385 80.7751 102.092C80.2935 101.759 79.742 101.499 79.1206 101.313C77.9639 100.976 76.7364 101.489 75.4381 102.853L73.8938 101.77C74.8242 100.624 75.2536 99.7748 75.182 99.2207C75.1083 98.6268 74.674 97.9924 73.879 97.3173L67.7382 91.875C65.0882 89.6247 62.566 87.9952 60.1717 86.9866C57.7774 85.9779 55.218 85.4363 52.4937 85.3617C52.1814 85.438 51.9554 85.5497 51.8155 85.6966C51.6757 85.8434 51.5769 85.9682 51.5191 86.0709C51.4613 86.1736 51.4255 86.2951 51.4119 86.4353C51.3982 86.5755 51.3835 86.6958 51.3678 86.7962C51.372 86.8757 51.3894 87.0043 51.4199 87.182C51.4283 87.341 51.4178 87.5408 51.3884 87.7814C51.379 88.0011 51.8508 89.1416 52.8037 91.2031L52.6838 91.329C51.8434 89.401 51.1693 88.2214 50.6614 87.7901C50.308 87.4901 49.1683 87.8693 47.2422 88.9279L46.9046 88.5274L49.4421 86.8686C49.8216 86.4698 49.7084 85.7287 49.1026 84.645C48.4947 83.5217 47.8926 82.7068 47.2964 82.2005C46.7001 81.6942 45.2312 81.4334 42.8896 81.4182L42.9084 80.5804C44.4909 80.596 45.5523 80.5297 46.0927 80.3815C46.6332 80.2333 47.1331 79.9179 47.5925 79.4352L48.3715 78.6168C48.731 78.2391 48.9565 77.9183 49.048 77.6544C49.3307 77.0218 48.7654 76.1053 47.3521 74.9052L48.3109 73.8979C49.0396 74.5167 49.5444 74.8884 49.8251 75.013C50.1259 75.1166 50.3525 75.2142 50.505 75.3057C50.6353 75.3785 50.8046 75.3894 51.0128 75.3385C51.241 75.2666 51.3871 75.239 51.4513 75.2555C51.6195 75.2465 51.8534 75.0847 52.153 74.7699L53.0519 73.8256C53.4714 73.3849 53.6995 72.9146 53.7362 72.4145C53.7708 71.8747 53.5509 70.9101 53.0765 69.5206L53.9471 69.2353C54.4804 70.9405 55.011 71.9982 55.5389 72.4085C56.0447 72.8001 56.3476 72.9434 56.4474 72.8385C56.5557 72.8925 56.8969 72.7648 57.471 72.4554C59.047 71.5549 60.2546 71.4609 61.0937 72.1735L61.5307 72.6584C61.6411 72.7522 64.1547 73.0272 69.0713 73.4836C73.988 73.9399 78.1582 74.2367 81.5817 74.3738C82.2126 74.3403 82.6679 74.1767 82.9475 73.8829C83.2471 73.5681 83.7065 72.687 84.3256 71.2395L85.2609 71.5784C84.7396 72.8812 84.4926 73.7909 84.52 74.3075C84.5474 74.8241 84.7709 75.2606 85.1905 75.6169L87.3105 77.4171C87.5314 77.6046 87.7249 77.6741 87.891 77.6254C88.2453 77.5468 88.4645 77.5053 88.5486 77.5008C89.0449 77.3151 89.8235 77.483 90.8845 78.0045C91.9455 78.526 92.9981 78.8886 94.0422 79.0922C95.1063 79.2748 95.9659 79.3786 96.621 79.4036C97.276 79.4287 97.7833 79.2523 98.1429 78.8746C99.1616 77.8044 98.4564 76.2379 96.0272 74.1751L91.6468 70.9107C91.0727 70.4232 90.3413 69.5554 89.4526 68.3075C88.5639 67.0595 87.8325 66.1918 87.2583 65.7042L80.605 60.7374L78.5561 59.6806C77.3868 59.105 75.1343 60.5695 71.7985 64.0739C70.4402 65.5009 69.4853 67.5739 68.9337 70.293L68.2633 70.1791C68.7435 67.7029 68.7527 65.8893 68.2909 64.7383C68.2162 64.523 68.0274 63.5468 67.7243 61.8095C67.3991 60.0535 66.9605 58.9411 66.4084 58.4722C65.8563 58.0034 64.6566 57.6487 62.8091 57.408L63.014 56.5005C64.4409 56.7635 65.4577 56.849 66.0643 56.7571C66.691 56.6441 67.254 56.3253 67.7534 55.8007C68.2527 55.2761 68.4887 54.7555 68.4613 54.2389C68.4539 53.7013 67.9979 52.8588 67.0935 51.7113L68.3409 50.7784C68.9277 51.5044 69.3868 52.0081 69.718 52.2894C70.5351 52.9832 71.9987 52.7461 74.1088 51.5782C77.4869 49.6654 81.0835 46.7051 84.8986 42.697C85.5378 42.0255 86.2121 40.6249 86.9215 38.4951L87.3726 38.6505C86.5918 41.0231 86.2997 42.6725 86.4965 43.5985C86.527 43.7762 86.5975 44.3104 86.708 45.2011C86.8165 46.0521 86.8902 46.646 86.9291 46.9826C86.988 47.2983 87.0796 47.8314 87.2038 48.5819C87.3479 49.3115 87.4936 49.8716 87.6409 50.2623C88.1069 51.4928 88.5528 52.3458 88.9787 52.8213L93.4598 54.4066C92.77 54.1245 92.0356 54.3926 91.2565 55.211C89.4588 57.0996 88.9906 58.4096 89.8519 59.1409L91.6075 60.6318C93.1092 61.9069 94.0151 62.885 94.3254 63.5659C94.6557 64.2258 94.8813 64.702 95.0022 64.9944C95.1011 65.2681 95.1947 65.4425 95.2831 65.5175L109.579 77.9987C110.087 78.43 111.203 78.0121 112.929 76.745L113.372 77.3491C112.117 78.3323 111.469 78.8448 111.429 78.8868C110.75 79.6003 111.084 80.529 112.431 81.6729C112.718 81.9167 113.391 82.4687 114.449 83.3291C115.484 84.1708 116.236 84.8282 116.704 85.3015C116.687 85.7806 116.834 86.1514 117.143 86.4139L118.886 87.6663C120.962 89.4291 122.174 90.6101 122.522 91.2093C122.848 91.7897 123.198 92.2393 123.574 92.5581C123.927 92.8581 124.999 93.1798 126.788 93.5232L126.598 94.1012C126.283 94.1378 125.885 94.1789 125.402 94.2244C124.939 94.249 124.614 94.2762 124.426 94.3061C124.216 94.3173 123.953 94.3411 123.639 94.3778C123.302 94.3956 123.072 94.4278 122.948 94.4742C122.822 94.4809 122.655 94.5097 122.447 94.5606C122.216 94.5927 122.039 94.632 121.915 94.6784C121.645 94.7526 121.388 94.8758 121.144 95.0481L121.264 94.9222C121.1 95.0106 120.918 95.1597 120.718 95.3696C120.219 95.8942 120.156 97.093 120.529 98.966L119.619 99.104C119.36 97.4042 119.021 96.3762 118.602 96.0199C118.16 95.6448 117.58 95.4564 116.863 95.4546C116.144 95.4131 115.605 95.5812 115.245 95.9589C114.886 96.3366 114.496 97.1443 114.077 98.382L112.889 98.0564C113.529 96.2093 113.551 95.0326 112.955 94.5263C112.116 93.8137 110.811 93.0661 109.04 92.2833C107.267 91.4609 105.806 90.9407 104.655 90.7228C104.912 90.7889 105.095 90.8688 105.206 90.9626C105.625 91.3189 105.575 92.3576 105.055 94.0788L103.519 93.7419C103.695 93.095 103.81 92.6804 103.864 92.4983C103.895 92.2973 103.938 92.1058 103.991 91.9236C104.023 91.7227 104.036 91.5627 104.029 91.4434C103.972 91.1675 103.867 90.9639 103.712 90.8326C103.535 90.6826 103 90.5317 102.106 90.3799C99.6996 89.9298 96.9211 89.8282 93.771 90.0751C93.0118 90.0755 92.4525 90.2646 92.0929 90.6423C91.7334 91.02 91.2998 91.7902 90.7921 92.9529L89.9167 92.551C90.8512 90.6883 91.0713 89.4712 90.577 88.8997L90.4445 88.7871C90.2279 88.6791 89.8672 88.6385 89.3625 88.6652C88.0977 89.0711 86.6851 89.2755 85.1247 89.2787C83.5423 89.263 82.2826 88.9712 81.3457 88.4033Z" fill="url(#paint0_angular_8_28)"/>
<path d="M81.3457 88.4033L80.6562 89.1276L80.7176 89.1797L80.7871 89.2219L81.3457 88.4033ZM77.8965 89.5726L77.2799 88.7989L77.2007 88.8555L77.1343 88.9253L77.8965 89.5726ZM77.3038 91.5168L76.2803 91.4336L76.2344 91.9047L76.5983 92.2272L77.3038 91.5168ZM95.948 104.275L95.3214 103.509L95.3088 103.518L95.2965 103.528L95.948 104.275ZM101.902 97.2647L102.13 96.3161L101.182 96.1184L100.914 97.0031L101.902 97.2647ZM102.702 97.4315L103.687 97.7035L104.001 96.7064L102.929 96.4828L102.702 97.4315ZM109.47 106.935L110.478 107.117L110.679 106.152L109.657 105.979L109.47 106.935ZM109.369 107.419L109.227 108.381L110.189 108.502L110.377 107.601L109.369 107.419ZM105.907 107.154L105.958 108.124L105.979 108.123L105.999 108.121L105.907 107.154ZM103.445 107.852L102.93 107.015L102.791 107.092L102.683 107.205L103.445 107.852ZM102.463 110.206L103.052 110.998L103.404 110.764L103.476 110.363L102.463 110.206ZM101.149 111.083L100.56 110.29L100.094 110.601L100.123 111.137L101.149 111.083ZM104.162 113.015L105.141 113.304L105.424 112.464L104.569 112.121L104.162 113.015ZM103.998 113.502L103.608 114.403L104.639 114.796L104.977 113.791L103.998 113.502ZM100.973 112.526L101.024 113.496L101.071 113.494L101.117 113.487L100.973 112.526ZM99.7252 113.459L98.9629 112.812L98.9432 112.833L98.9248 112.854L99.7252 113.459ZM98.7428 114.617L97.9424 114.012L97.3334 114.73L98.0533 115.342L98.7428 114.617ZM100.331 115.34L100.14 116.296L100.174 116.301L100.207 116.305L100.331 115.34ZM103.515 115.141L104.528 114.971L104.361 114.049L103.379 114.179L103.515 115.141ZM103.65 115.881L103.795 116.842L104.841 116.694L104.663 115.712L103.65 115.881ZM99.2163 117.581L98.1898 117.635L98.3141 119.977L99.9786 118.228L99.2163 117.581ZM99.21 117.462L100.237 117.407L100.064 114.157L98.3232 116.976L99.21 117.462ZM103.835 119.966L104.851 120.103L105.027 118.986L103.833 118.994L103.835 119.966ZM103.717 120.719L103.683 121.69L104.599 121.714L104.733 120.856L103.717 120.719ZM100.532 120.918L100.798 121.855L100.81 121.852L100.823 121.848L100.532 120.918ZM97.0823 127.437L97.1338 128.407L98.1788 128.352L98.1077 127.365L97.0823 127.437ZM96.4514 127.471L95.4241 127.508L95.4579 128.496L96.5029 128.441L96.4514 127.471ZM92.6586 119.184L93.5998 119.569L93.6149 119.537L93.6274 119.503L92.6586 119.184ZM91.7546 117.05L90.8774 117.562L90.883 117.57L90.8889 117.579L91.7546 117.05ZM89.5082 114.061L90.3008 113.438L90.292 113.428L90.283 113.419L89.5082 114.061ZM88.2668 112.723L87.3256 112.338L87.0636 112.903L87.492 113.365L88.2668 112.723ZM88.3803 112.477L88.8487 111.61L87.8776 111.146L87.4391 112.092L88.3803 112.477ZM91.1545 111.703L90.1295 111.636L90.1273 111.664L90.1268 111.692L91.1545 111.703ZM90.7616 110.857L90.0471 111.559L90.0595 111.57L90.0722 111.581L90.7616 110.857ZM80.7751 102.092L80.165 102.877L80.1885 102.893L80.213 102.908L80.7751 102.092ZM79.1206 101.313L79.4365 100.387L79.4288 100.385L79.1206 101.313ZM75.4381 102.853L74.8222 103.634L75.572 104.161L76.2003 103.501L75.4381 102.853ZM73.8938 101.77L73.08 101.181L72.4431 101.965L73.2779 102.551L73.8938 101.77ZM75.182 99.2207L74.1612 99.3395L74.1618 99.3441L75.182 99.2207ZM73.879 97.3173L73.1735 98.0277L73.1814 98.0348L73.1895 98.0416L73.879 97.3173ZM67.7382 91.875L68.4436 91.1645L68.4357 91.1575L68.4276 91.1507L67.7382 91.875ZM52.4937 85.3617L52.5296 84.3907L52.3836 84.3867L52.2419 84.4213L52.4937 85.3617ZM51.5191 86.0709L52.4258 86.5232L51.5191 86.0709ZM51.3678 86.7962L50.3511 86.6595L50.3362 86.7547L50.3413 86.8507L51.3678 86.7962ZM51.4199 87.182L52.4464 87.1275L52.4436 87.0738L52.4344 87.0208L51.4199 87.182ZM51.3884 87.7814L50.3674 87.6757L50.363 87.7117L50.3615 87.7479L51.3884 87.7814ZM52.8037 91.2031L53.5659 91.8504L54.0109 91.3829L53.7459 90.8097L52.8037 91.2031ZM52.6838 91.329L51.7332 91.7036L52.3527 93.1249L53.4461 91.9763L52.6838 91.329ZM47.2422 88.9279L46.4368 89.536L46.9871 90.1889L47.7549 89.7669L47.2422 88.9279ZM46.9046 88.5274L46.3233 87.7296L45.4148 88.3236L46.0992 89.1355L46.9046 88.5274ZM49.4421 86.8686L50.0233 87.6664L50.1231 87.6011L50.2043 87.5158L49.4421 86.8686ZM49.1026 84.645L48.1869 85.0915L48.1932 85.1029L49.1026 84.645ZM42.8896 81.4182L41.862 81.4035L41.8401 82.3829L42.8764 82.3896L42.8896 81.4182ZM42.9084 80.5804L42.9253 79.609L41.9025 79.5989L41.8808 80.5656L42.9084 80.5804ZM49.048 77.6544L48.1015 77.281L48.0848 77.3185L48.0714 77.3571L49.048 77.6544ZM47.3521 74.9052L46.5898 74.2579L45.9004 74.9822L46.6626 75.6295L47.3521 74.9052ZM48.3109 73.8979L49.0003 73.1736L48.2381 72.5263L47.5486 73.2506L48.3109 73.8979ZM49.8251 75.013L49.3838 75.8928L49.4251 75.9111L49.4681 75.9259L49.8251 75.013ZM50.505 75.3057L49.9502 76.1266L49.9641 76.135L49.9784 76.1429L50.505 75.3057ZM51.0128 75.3385L51.2646 76.2789L51.2989 76.2705L51.3326 76.2599L51.0128 75.3385ZM51.4513 75.2555L51.1755 76.1928L51.3361 76.2342L51.5027 76.2253L51.4513 75.2555ZM53.7362 72.4145L54.7616 72.476L54.7621 72.4675L53.7362 72.4145ZM53.0765 69.5206L52.745 68.603L51.7883 68.9165L52.0982 69.824L53.0765 69.5206ZM53.9471 69.2353L54.9328 68.9548L54.6296 67.9854L53.6156 68.3177L53.9471 69.2353ZM55.5389 72.4085L54.8832 73.1603L54.8848 73.1615L55.5389 72.4085ZM56.4474 72.8385L56.9314 71.9788L56.2235 71.6257L55.6852 72.1912L56.4474 72.8385ZM57.471 72.4554L57.9761 73.2985L57.9876 73.2923L57.9989 73.2859L57.471 72.4554ZM61.0937 72.1735L61.8779 71.5411L61.8338 71.4921L61.7832 71.4492L61.0937 72.1735ZM61.5307 72.6584L60.7465 73.2908L60.7906 73.3397L60.8412 73.3827L61.5307 72.6584ZM81.5817 74.3738L81.5321 75.3443L81.5826 75.3464L81.6332 75.3437L81.5817 74.3738ZM84.3256 71.2395L84.6985 70.3322L83.7538 69.9899L83.373 70.8801L84.3256 71.2395ZM85.2609 71.5784L86.222 71.9172L86.583 71.015L85.6338 70.6711L85.2609 71.5784ZM87.891 77.6254L87.6619 76.6798L87.6267 76.6876L87.5921 76.6977L87.891 77.6254ZM88.5486 77.5008L88.6001 78.4707L88.7667 78.4619L88.9221 78.4037L88.5486 77.5008ZM94.0422 79.0922L93.8287 80.0436L93.8407 80.0459L93.8527 80.048L94.0422 79.0922ZM96.0272 74.1751L96.7166 73.4507L96.6923 73.43L96.6666 73.4109L96.0272 74.1751ZM91.6468 70.9107L90.9574 71.6351L90.9818 71.6558L91.0075 71.6749L91.6468 70.9107ZM87.2583 65.7042L87.9478 64.9799L87.9238 64.9595L87.8984 64.9405L87.2583 65.7042ZM80.605 60.7374L81.2451 59.9738L81.1774 59.9232L81.1016 59.8841L80.605 60.7374ZM78.5561 59.6806L79.0527 58.8273L79.0439 58.8228L79.0351 58.8184L78.5561 59.6806ZM68.9337 70.293L68.746 71.2491L69.7504 71.4197L69.943 70.4704L68.9337 70.293ZM68.2633 70.1791L67.2524 70.0096L67.0673 70.964L68.0756 71.1352L68.2633 70.1791ZM68.2909 64.7383L67.3141 65.046L67.3214 65.0669L67.3296 65.0874L68.2909 64.7383ZM67.7243 61.8095L68.7385 61.6459L68.7367 61.6365L67.7243 61.8095ZM62.8091 57.408L61.804 57.2107L61.5742 58.2285L62.6628 58.3703L62.8091 57.408ZM63.014 56.5005L63.2166 55.547L62.2211 55.3636L62.0089 56.3033L63.014 56.5005ZM66.0643 56.7571L66.2212 57.7162L66.2361 57.7139L66.251 57.7112L66.0643 56.7571ZM68.4613 54.2389L67.4336 54.2575L67.4338 54.2754L67.4348 54.2934L68.4613 54.2389ZM67.0935 51.7113L66.4587 50.951L65.6724 51.5391L66.2679 52.2947L67.0935 51.7113ZM68.3409 50.7784L69.159 50.1858L68.5271 49.404L67.7061 50.0181L68.3409 50.7784ZM74.1088 51.5782L74.6243 52.4157L74.6331 52.4107L74.1088 51.5782ZM86.9215 38.4951L87.2786 37.5822L86.2661 37.2335L85.9413 38.2085L86.9215 38.4951ZM87.3726 38.6505L88.3539 38.934L88.644 38.0526L87.7297 37.7376L87.3726 38.6505ZM86.4965 43.5985L87.511 43.4372L87.508 43.4194L87.5042 43.4017L86.4965 43.5985ZM86.708 45.2011L85.6872 45.32L85.6876 45.323L86.708 45.2011ZM86.9291 46.9826L85.9074 47.094L85.911 47.1256L85.9169 47.157L86.9291 46.9826ZM87.2038 48.5819L86.1883 48.7376L86.1906 48.7518L86.1934 48.7658L87.2038 48.5819ZM87.6409 50.2623L86.6725 50.5932L86.673 50.5945L87.6409 50.2623ZM88.9787 52.8213L88.1926 53.4516L88.3643 53.6432L88.6134 53.7313L88.9787 52.8213ZM93.4598 54.4066L93.0944 55.3166L93.8728 53.5148L93.4598 54.4066ZM94.3254 63.5659L93.3811 63.9546L93.3881 63.9702L93.3958 63.9855L94.3254 63.5659ZM95.0022 64.9944L95.9751 64.6756L95.9679 64.6556L95.9598 64.636L95.0022 64.9944ZM95.2831 65.5175L95.983 64.802L95.9725 64.7931L95.2831 65.5175ZM109.579 77.9987L108.879 78.7141L108.889 78.723L109.579 77.9987ZM112.929 76.745L113.774 76.1882L113.159 75.3493L112.301 75.9793L112.929 76.745ZM113.372 77.3491L114.025 78.0956L114.755 77.5241L114.218 76.7923L113.372 77.3491ZM114.449 83.3291L113.775 84.0671L113.776 84.0673L114.449 83.3291ZM116.704 85.3015L117.731 85.3278L117.745 84.9276L117.457 84.636L116.704 85.3015ZM117.143 86.4139L116.453 87.1383L116.484 87.1646L116.518 87.1885L117.143 86.4139ZM118.886 87.6663L119.575 86.942L119.544 86.9156L119.511 86.8918L118.886 87.6663ZM122.522 91.2093L123.43 90.7497L123.423 90.7378L122.522 91.2093ZM126.788 93.5232L127.769 93.8074L128.107 92.7839L126.999 92.5712L126.788 93.5232ZM126.598 94.1012L126.717 95.0653L127.38 94.9882L127.579 94.3854L126.598 94.1012ZM125.402 94.2244L125.454 95.1943L125.476 95.1931L125.498 95.191L125.402 94.2244ZM124.426 94.3061L124.477 95.276L124.534 95.273L124.59 95.264L124.426 94.3061ZM123.639 94.3778L123.69 95.3476L123.724 95.3458L123.758 95.3419L123.639 94.3778ZM122.948 94.4742L123 95.4441L123.166 95.4352L123.321 95.3771L122.948 94.4742ZM122.447 94.5606L122.591 95.5215L122.645 95.5139L122.698 95.5009L122.447 94.5606ZM121.915 94.6784L122.196 95.6112L122.243 95.5983L122.288 95.5813L121.915 94.6784ZM121.144 95.0481L120.382 94.4008L121.756 95.8249L121.144 95.0481ZM121.264 94.9222L122.026 95.5695L120.759 94.0791L121.264 94.9222ZM120.529 98.966L120.686 99.9251L121.736 99.766L121.539 98.7806L120.529 98.966ZM119.619 99.104L118.602 99.2481L118.75 100.219L119.776 100.063L119.619 99.104ZM116.863 95.4546L116.795 96.4242L116.825 96.4259L116.855 96.426L116.863 95.4546ZM114.077 98.382L113.785 99.315L114.749 99.5791L115.056 98.6732L114.077 98.382ZM112.889 98.0564L111.913 97.7591L111.583 98.7114L112.598 98.9895L112.889 98.0564ZM109.04 92.2833L108.583 93.1559L108.591 93.1599L108.6 93.1637L109.04 92.2833ZM104.655 90.7228L104.863 89.7703L104.379 91.6601L104.655 90.7228ZM105.055 94.0788L104.817 95.0252L105.773 95.2348L106.043 94.3405L105.055 94.0788ZM103.519 93.7419L102.523 93.5047L102.261 94.4648L103.281 94.6883L103.519 93.7419ZM103.864 92.4983L104.854 92.7533L104.871 92.6949L104.88 92.6351L103.864 92.4983ZM103.991 91.9236L104.982 92.1787L104.999 92.1203L105.008 92.0604L103.991 91.9236ZM104.029 91.4434L105.056 91.389L105.052 91.32L105.038 91.2524L104.029 91.4434ZM102.106 90.3799L101.901 91.3329L101.91 91.3345L101.919 91.336L102.106 90.3799ZM93.771 90.0751L93.7654 91.0465L93.8077 91.0464L93.8498 91.0431L93.771 90.0751ZM90.7921 92.9529L90.3386 93.8271L91.3226 94.2789L91.7418 93.3188L90.7921 92.9529ZM89.9167 92.551L88.9885 92.1392L88.5529 93.0074L89.4632 93.4253L89.9167 92.551ZM90.577 88.8997L91.3744 88.2822L91.3248 88.2248L91.2665 88.1753L90.577 88.8997ZM90.4445 88.7871L91.134 88.0628L91.0401 87.9831L90.9285 87.9275L90.4445 88.7871ZM89.3625 88.6652L89.3111 87.6954L89.1707 87.7028L89.0374 87.7456L89.3625 88.6652ZM85.1247 89.2787L85.1078 90.2501L85.1207 90.2501L85.1247 89.2787ZM82.0351 87.679C81.331 87.081 80.4178 87.1958 79.7274 87.4299C79.0053 87.6747 78.1821 88.1544 77.2799 88.7989L78.5132 90.3462C79.3583 89.7424 79.9836 89.4031 80.4112 89.2581C80.8705 89.1024 80.8082 89.2567 80.6562 89.1276L82.0351 87.679ZM77.1343 88.9253C76.8354 89.2393 76.6552 89.6402 76.5361 90.0309C76.4132 90.4342 76.3316 90.9071 76.2803 91.4336L78.3273 91.6C78.3715 91.1451 78.4365 90.8033 78.5111 90.5585C78.548 90.4375 78.5839 90.3514 78.6141 90.293C78.6446 90.2338 78.6628 90.2156 78.6588 90.2199L77.1343 88.9253ZM76.5983 92.2272C82.6997 97.6359 86.1517 100.682 86.9352 101.347L88.3141 99.8982C87.5518 99.2508 84.1231 96.226 78.0093 90.8064L76.5983 92.2272ZM86.9352 101.347L91.8377 105.51L93.2166 104.061L88.3141 99.8982L86.9352 101.347ZM91.8377 105.51C92.4996 106.072 93.3126 106.312 94.1992 106.18C95.0276 106.057 95.8319 105.622 96.5996 105.023L95.2965 103.528C94.6669 104.019 94.2025 104.215 93.8906 104.261C93.6369 104.299 93.4381 104.249 93.2166 104.061L91.8377 105.51ZM96.5746 105.042C97.1352 104.631 97.7862 104.099 98.5245 103.451L97.1311 102.031C96.4186 102.656 95.8164 103.146 95.3214 103.509L96.5746 105.042ZM98.5245 103.451C99.2548 102.811 99.7162 102.445 99.9471 102.297L98.8026 100.69C98.4216 100.933 97.8517 101.399 97.1311 102.031L98.5245 103.451ZM99.9471 102.297C100.355 102.036 100.783 101.651 101.225 101.186L99.7007 99.8917C99.3043 100.308 99.0069 100.559 98.8026 100.69L99.9471 102.297ZM101.225 101.186C101.566 100.829 101.849 100.315 102.101 99.7423C102.362 99.149 102.625 98.4067 102.891 97.5263L100.914 97.0031C100.66 97.8439 100.423 98.5079 100.204 99.006C99.9756 99.5246 99.7998 99.7876 99.7007 99.8917L101.225 101.186ZM101.675 98.2133L102.475 98.3801L102.929 96.4828L102.13 96.3161L101.675 98.2133ZM101.717 97.1595C101.176 98.8764 100.916 100.385 100.995 101.655C101.076 102.937 101.51 104.047 102.43 104.828L103.809 103.38C103.404 103.036 103.106 102.471 103.047 101.529C102.988 100.574 103.181 99.3097 103.687 97.7035L101.717 97.1595ZM102.43 104.828L103.921 106.094L105.3 104.645L103.809 103.38L102.43 104.828ZM103.921 106.094C104.437 106.532 105.177 106.869 106.035 107.145C106.911 107.427 107.998 107.674 109.283 107.891L109.657 105.979C108.43 105.771 107.452 105.545 106.708 105.306C105.946 105.06 105.512 104.826 105.3 104.645L103.921 106.094ZM108.461 106.753L108.36 107.236L110.377 107.601L110.478 107.117L108.461 106.753ZM109.51 106.456C107.758 106.235 106.479 106.126 105.814 106.187L105.999 108.121C106.384 108.086 107.413 108.153 109.227 108.381L109.51 106.456ZM105.855 106.184C104.811 106.24 103.831 106.517 102.93 107.015L103.96 108.69C104.575 108.35 105.237 108.162 105.958 108.124L105.855 106.184ZM102.683 107.205C102.029 107.892 101.657 108.893 101.449 110.049L103.476 110.363C103.659 109.346 103.942 108.779 104.207 108.5L102.683 107.205ZM101.873 109.413L100.56 110.29L101.738 111.875L103.052 110.998L101.873 109.413ZM100.123 111.137C100.155 111.741 100.525 112.204 100.909 112.53L102.288 111.082C102.2 111.007 102.166 110.96 102.158 110.946C102.152 110.937 102.172 110.966 102.176 111.028L100.123 111.137ZM100.909 112.53C101.158 112.742 101.559 112.95 101.975 113.147C102.428 113.36 103.024 113.615 103.754 113.909L104.569 112.121C103.856 111.834 103.302 111.596 102.902 111.407C102.701 111.313 102.548 111.234 102.436 111.172C102.315 111.104 102.28 111.074 102.288 111.082L100.909 112.53ZM103.183 112.725L103.019 113.212L104.977 113.791L105.141 113.304L103.183 112.725ZM104.388 112.601C103.489 112.257 102.769 111.998 102.239 111.827C101.975 111.742 101.741 111.673 101.546 111.627C101.449 111.604 101.347 111.583 101.246 111.569C101.163 111.558 101.005 111.541 100.828 111.566L101.117 113.487C100.997 113.504 100.921 113.49 100.945 113.493C100.95 113.494 100.978 113.498 101.036 113.512C101.151 113.539 101.324 113.588 101.565 113.666C102.042 113.82 102.72 114.064 103.608 114.403L104.388 112.601ZM100.921 111.557C100.511 111.578 100.019 111.702 99.652 112.088L101.177 113.383C101.117 113.445 101.055 113.477 101.017 113.492C100.984 113.504 100.98 113.499 101.024 113.496L100.921 111.557ZM99.652 112.088L98.9629 112.812L100.487 114.107L101.177 113.383L99.652 112.088ZM98.9248 112.854L97.9424 114.012L99.5431 115.222L100.526 114.064L98.9248 112.854ZM98.0533 115.342C98.643 115.842 99.3478 116.159 100.14 116.296L100.522 114.384C100.08 114.308 99.7258 114.142 99.4322 113.893L98.0533 115.342ZM100.207 116.305C100.967 116.388 102.147 116.302 103.652 116.103L103.379 114.179C101.868 114.379 100.925 114.426 100.455 114.375L100.207 116.305ZM102.502 115.311L102.637 116.051L104.663 115.712L104.528 114.971L102.502 115.311ZM103.504 114.92C102.345 115.084 101.374 115.279 100.608 115.513C99.8804 115.735 99.1883 116.036 98.7474 116.5L100.272 117.794C100.33 117.733 100.578 117.56 101.23 117.361C101.845 117.173 102.693 116.998 103.795 116.842L103.504 114.92ZM98.7474 116.5C98.6184 116.635 98.5211 116.796 98.4563 116.912L100.27 117.816C100.279 117.799 100.288 117.785 100.294 117.774C100.301 117.763 100.306 117.756 100.308 117.752C100.311 117.748 100.31 117.75 100.305 117.756C100.303 117.759 100.299 117.764 100.294 117.77C100.288 117.776 100.281 117.784 100.272 117.794L98.7474 116.5ZM98.4563 116.912C98.4465 116.929 98.4382 116.943 98.4315 116.954C98.4247 116.965 98.4201 116.972 98.4177 116.976C98.4152 116.98 98.4163 116.978 98.4209 116.972C98.4233 116.969 98.4272 116.964 98.4324 116.958C98.4376 116.951 98.4449 116.943 98.4541 116.934L99.9786 118.228C100.108 118.093 100.205 117.931 100.27 117.816L98.4563 116.912ZM100.243 117.526L100.237 117.407L98.1835 117.516L98.1898 117.635L100.243 117.526ZM98.3232 116.976C98.0321 117.447 97.8974 117.989 98.0322 118.556C98.1617 119.1 98.5102 119.543 98.9277 119.898L100.307 118.449C100.084 118.26 100.044 118.146 100.038 118.119C100.035 118.107 100.034 118.097 100.038 118.079C100.042 118.059 100.055 118.016 100.097 117.948L98.3232 116.976ZM98.9277 119.898C99.4468 120.339 100.169 120.586 100.946 120.732C101.742 120.882 102.713 120.945 103.836 120.937L103.833 118.994C102.786 119.002 101.967 118.941 101.358 118.827C100.729 118.709 100.428 118.552 100.307 118.449L98.9277 119.898ZM102.818 119.829L102.7 120.583L104.733 120.856L104.851 120.103L102.818 119.829ZM103.75 119.748C102.232 119.709 101.02 119.767 100.241 119.988L100.823 121.848C101.25 121.727 102.16 121.651 103.683 121.69L103.75 119.748ZM100.267 119.981C99.4954 120.18 98.8311 120.565 98.297 121.126L99.8215 122.421C100.086 122.142 100.404 121.957 100.798 121.855L100.267 119.981ZM98.297 121.126L96.8888 122.606L98.4133 123.9L99.8215 122.421L98.297 121.126ZM96.8888 122.606C96.4022 123.117 96.1869 123.856 96.0849 124.606C95.9781 125.392 95.9745 126.366 96.0569 127.509L98.1077 127.365C98.0299 126.285 98.041 125.451 98.1238 124.842C98.2114 124.197 98.3606 123.955 98.4133 123.9L96.8888 122.606ZM97.0308 126.467L96.3999 126.501L96.5029 128.441L97.1338 128.407L97.0308 126.467ZM97.4787 127.434C97.4396 126.289 97.3329 125.32 97.1435 124.55C96.9627 123.814 96.6705 123.103 96.1324 122.646L94.7535 124.094C94.8118 124.144 94.9857 124.368 95.1411 125C95.2878 125.597 95.3872 126.425 95.4241 127.508L97.4787 127.434ZM96.1324 122.646L94.9068 121.605L93.5279 123.054L94.7535 124.094L96.1324 122.646ZM94.9068 121.605C94.3741 121.153 94.0003 120.789 93.7627 120.508C93.4916 120.188 93.5096 120.105 93.5192 120.198L91.4734 120.399C91.5262 120.908 91.8527 121.371 92.1553 121.728C92.4914 122.125 92.9564 122.568 93.5279 123.054L94.9068 121.605ZM93.5192 120.198C93.4902 119.918 93.5307 119.718 93.5998 119.569L91.7175 118.799C91.4838 119.304 91.4161 119.847 91.4734 120.399L93.5192 120.198ZM93.6274 119.503C93.7366 119.211 93.7269 118.925 93.6907 118.703C93.6535 118.474 93.577 118.245 93.484 118.026C93.2987 117.588 93.0013 117.082 92.6203 116.522L90.8889 117.579C91.2398 118.095 91.4591 118.484 91.5751 118.757C91.6329 118.894 91.6532 118.974 91.659 119.01C91.6658 119.052 91.6453 118.984 91.6898 118.865L93.6274 119.503ZM92.6318 116.539C91.8971 115.406 91.1204 114.372 90.3008 113.438L88.7157 114.684C89.4672 115.54 90.1881 116.499 90.8774 117.562L92.6318 116.539ZM90.283 113.419L89.0415 112.08L87.492 113.365L88.7335 114.704L90.283 113.419ZM89.2079 113.108L89.3215 112.862L87.4391 112.092L87.3256 112.338L89.2079 113.108ZM87.9119 113.345C88.5485 113.649 89.202 113.852 89.8397 113.85C90.5213 113.846 91.1412 113.605 91.6093 113.113L90.0848 111.819C90.0335 111.873 89.9826 111.906 89.842 111.907C89.6575 111.908 89.3372 111.844 88.8487 111.61L87.9119 113.345ZM91.6093 113.113C91.9871 112.716 92.1731 112.231 92.1821 111.713L90.1268 111.692C90.1254 111.772 90.1064 111.796 90.0848 111.819L91.6093 113.113ZM92.1794 111.769C92.2317 111.105 91.936 110.544 91.4511 110.132L90.0722 111.581C90.1276 111.628 90.1363 111.652 90.1336 111.646C90.1325 111.644 90.131 111.639 90.1301 111.634C90.1293 111.63 90.13 111.63 90.1295 111.636L92.1794 111.769ZM91.4761 110.154C86.3468 105.496 83.5035 102.928 82.9789 102.483L81.6 103.931C82.0912 104.348 84.896 106.881 90.0471 111.559L91.4761 110.154ZM82.9789 102.483C82.4184 102.007 81.8711 101.602 81.3373 101.275L80.213 102.908C80.6382 103.168 81.1005 103.507 81.6 103.931L82.9789 102.483ZM81.3853 101.307C80.8067 100.907 80.1539 100.602 79.4365 100.387L78.8046 102.239C79.3301 102.397 79.7804 102.611 80.165 102.877L81.3853 101.307ZM79.4288 100.385C77.6888 99.8774 76.0663 100.745 74.6758 102.206L76.2003 103.501C77.4065 102.233 78.2391 102.074 78.8123 102.241L79.4288 100.385ZM76.0539 102.072L74.5097 100.988L73.2779 102.551L74.8222 103.634L76.0539 102.072ZM74.7077 102.358C75.1962 101.757 75.5829 101.198 75.8406 100.688C76.0885 100.197 76.2729 99.6445 76.2023 99.0972L74.1618 99.3441C74.1611 99.3392 74.1665 99.3759 74.1426 99.4695C74.119 99.5623 74.0717 99.6908 73.9867 99.8591C73.815 100.199 73.5218 100.637 73.08 101.181L74.7077 102.358ZM76.2028 99.1018C76.0859 98.1592 75.4301 97.3247 74.5684 96.593L73.1895 98.0416C73.9178 98.6601 74.1308 99.0945 74.1612 99.3395L76.2028 99.1018ZM74.5844 96.6068L68.4436 91.1645L67.0327 92.5855L73.1735 98.0277L74.5844 96.6068ZM68.4276 91.1507C65.7249 88.8556 63.1144 87.1603 60.5948 86.0989L59.7486 87.8742C62.0177 88.8301 64.4514 90.3938 67.0487 92.5993L68.4276 91.1507ZM60.5948 86.0989C58.074 85.037 55.3826 84.4688 52.5296 84.3907L52.4578 86.3327C55.0535 86.4038 57.4808 86.9189 59.7486 87.8742L60.5948 86.0989ZM52.2419 84.4213C51.8324 84.5215 51.3848 84.7011 51.0533 85.0493L52.5778 86.3438C52.549 86.374 52.5347 86.3764 52.5616 86.3631C52.5892 86.3494 52.6464 86.3263 52.7455 86.3021L52.2419 84.4213ZM51.0533 85.0493C50.8904 85.2204 50.7278 85.4137 50.6124 85.6186L52.4258 86.5232C52.4231 86.5281 52.4305 86.5142 52.4581 86.4794C52.4847 86.4458 52.5235 86.4009 52.5778 86.3438L51.0533 85.0493ZM50.6124 85.6186C50.4779 85.8575 50.412 86.1096 50.3884 86.352L52.4354 86.5185C52.4391 86.4805 52.4447 86.4897 52.4258 86.5232L50.6124 85.6186ZM50.3884 86.352C50.3759 86.4806 50.3632 86.5821 50.3511 86.6595L52.3845 86.933C52.4038 86.8095 52.4206 86.6703 52.4354 86.5185L50.3884 86.352ZM50.3413 86.8507C50.3486 86.9884 50.3744 87.1629 50.4053 87.3433L52.4344 87.0208C52.4204 86.9389 52.4103 86.8738 52.4035 86.8236C52.4002 86.7987 52.3978 86.7792 52.3963 86.7645C52.3956 86.7573 52.3951 86.7517 52.3947 86.7477C52.3944 86.7436 52.3943 86.7417 52.3943 86.7418L50.3413 86.8507ZM50.3934 87.2365C50.3979 87.3221 50.3933 87.4639 50.3674 87.6757L52.4094 87.8871C52.4424 87.6176 52.4587 87.3598 52.4464 87.1275L50.3934 87.2365ZM50.3615 87.7479C50.3543 87.9142 50.3893 88.0636 50.4064 88.1327C50.429 88.2246 50.4595 88.3228 50.4929 88.421C50.56 88.6186 50.6566 88.8673 50.7776 89.16C51.0208 89.7479 51.3833 90.562 51.8614 91.5965L53.7459 90.8097C53.2712 89.7827 52.9213 88.9958 52.6927 88.4432C52.5779 88.1655 52.4987 87.9591 52.4503 87.8167C52.4259 87.7449 52.4136 87.7018 52.4085 87.6812C52.3979 87.6378 52.4202 87.7036 52.4154 87.815L50.3615 87.7479ZM52.0414 90.5558L51.9216 90.6817L53.4461 91.9763L53.5659 91.8504L52.0414 90.5558ZM53.6345 90.9543C53.2073 89.9743 52.8134 89.1635 52.4529 88.5327C52.1069 87.9272 51.7431 87.3989 51.3508 87.0658L49.9719 88.5144C50.0876 88.6127 50.3148 88.8898 50.6429 89.4639C50.9566 90.0127 51.32 90.7557 51.7332 91.7036L53.6345 90.9543ZM51.3508 87.0658C50.9709 86.7432 50.506 86.7062 50.1974 86.7226C49.873 86.7398 49.5333 86.8244 49.2054 86.9335C48.5432 87.1539 47.7103 87.5499 46.7295 88.0889L47.7549 89.7669C48.7002 89.2474 49.4002 88.9245 49.8777 88.7656C50.1197 88.6851 50.2516 88.6649 50.3004 88.6623C50.365 88.6589 50.1751 88.687 49.9719 88.5144L51.3508 87.0658ZM48.0476 88.3199L47.71 87.9194L46.0992 89.1355L46.4368 89.536L48.0476 88.3199ZM47.4859 89.3253L50.0233 87.6664L48.8608 86.0707L46.3233 87.7296L47.4859 89.3253ZM50.2043 87.5158C50.6722 87.0243 50.741 86.4056 50.6591 85.8693C50.5785 85.3414 50.3393 84.7726 50.012 84.1872L48.1932 85.1029C48.4718 85.6011 48.592 85.9448 48.6245 86.158C48.6558 86.3628 48.5914 86.3141 48.6798 86.2213L50.2043 87.5158ZM50.0183 84.1986C49.3862 83.0306 48.7163 82.0965 47.9858 81.4762L46.6069 82.9248C47.069 83.3172 47.6032 84.0128 48.187 85.0915L50.0183 84.1986ZM47.9858 81.4762C47.4737 81.0413 46.7273 80.8097 45.9431 80.6705C45.1248 80.5252 44.1047 80.4547 42.9028 80.4468L42.8764 82.3896C44.0161 82.397 44.9013 82.4644 45.5519 82.5799C46.2367 82.7015 46.5228 82.8534 46.6069 82.9248L47.9858 81.4762ZM43.9172 81.433L43.936 80.5952L41.8808 80.5656L41.862 81.4035L43.9172 81.433ZM42.8915 81.5517C44.4543 81.5672 45.6652 81.5086 46.3737 81.3143L45.8118 79.4487C45.4394 79.5509 44.5274 79.6249 42.9253 79.609L42.8915 81.5517ZM46.3737 81.3143C47.1363 81.1051 47.7945 80.6711 48.3547 80.0825L46.8302 78.7879C46.4717 79.1646 46.13 79.3614 45.8118 79.4487L46.3737 81.3143ZM48.3547 80.0825L49.1338 79.2641L47.6093 77.9695L46.8302 78.7879L48.3547 80.0825ZM49.1338 79.2641C49.523 78.8552 49.8651 78.4117 50.0245 77.9517L48.0714 77.3571C48.0479 77.4249 47.9391 77.623 47.6093 77.9695L49.1338 79.2641ZM49.9944 78.0278C50.3192 77.3012 50.0782 76.5726 49.7248 75.9996C49.3645 75.4155 48.7804 74.8082 48.0416 74.1808L46.6626 75.6295C47.3371 76.2022 47.7424 76.6533 47.9474 76.9856C48.1592 77.329 48.0595 77.375 48.1015 77.281L49.9944 78.0278ZM48.1143 75.5524L49.0731 74.5452L47.5486 73.2506L46.5898 74.2579L48.1143 75.5524ZM47.6214 74.6222C47.9953 74.9397 48.3231 75.2036 48.6013 75.4084C48.8643 75.6021 49.1349 75.7824 49.3838 75.8928L50.2665 74.1332C50.2665 74.1332 50.2663 74.1332 50.2659 74.133C50.2655 74.1328 50.2649 74.1325 50.2641 74.1321C50.2626 74.1314 50.2603 74.1303 50.2574 74.1288C50.2514 74.1258 50.2432 74.1215 50.2326 74.1157C50.2112 74.1038 50.1829 74.0872 50.1473 74.0647C50.0754 74.0192 49.9838 73.9564 49.8707 73.8732C49.6442 73.7064 49.3552 73.4749 49.0003 73.1736L47.6214 74.6222ZM49.4681 75.9259C49.7438 76.0209 49.8899 76.0904 49.9502 76.1266L51.0597 74.4848C50.815 74.3379 50.5079 74.2123 50.1822 74.1001L49.4681 75.9259ZM49.9784 76.1429C50.4254 76.3924 50.9028 76.3673 51.2646 76.2789L50.761 74.3982C50.737 74.404 50.7557 74.3961 50.806 74.3993C50.8615 74.4029 50.9442 74.4198 51.0315 74.4685L49.9784 76.1429ZM51.3326 76.2599C51.3776 76.2457 51.4136 76.2353 51.4415 76.2279C51.47 76.2203 51.4853 76.2171 51.4897 76.2163C51.4963 76.215 51.4768 76.2193 51.4392 76.2212C51.4195 76.2223 51.3877 76.2231 51.3471 76.2205C51.3076 76.2179 51.2476 76.2114 51.1755 76.1928L51.727 74.3182C51.4427 74.2449 51.1793 74.2959 51.0974 74.3114C50.9651 74.3365 50.8264 74.3752 50.6931 74.4172L51.3326 76.2599ZM51.5027 76.2253C51.8829 76.2052 52.1807 76.0318 52.3567 75.91C52.5535 75.7739 52.7406 75.6008 52.9153 75.4172L51.3908 74.1226C51.3307 74.1858 51.2795 74.2353 51.237 74.2733C51.194 74.3117 51.1648 74.3339 51.149 74.3448C51.1319 74.3566 51.1406 74.3483 51.1732 74.3344C51.2048 74.321 51.2839 74.2918 51.3998 74.2856L51.5027 76.2253ZM52.9153 75.4172L53.8141 74.4729L52.2896 73.1783L51.3908 74.1226L52.9153 75.4172ZM53.8141 74.4729C54.3593 73.9002 54.7061 73.2306 54.7615 72.476L52.7109 72.353C52.6928 72.5986 52.5835 72.8697 52.2896 73.1783L53.8141 74.4729ZM54.7621 72.4675C54.7879 72.0647 54.7183 71.5861 54.602 71.0761C54.4824 70.5513 54.298 69.9296 54.0548 69.2173L52.0982 69.824C52.3294 70.5011 52.4922 71.0565 52.5924 71.4962C52.6961 71.9509 52.719 72.2246 52.7103 72.3616L54.7621 72.4675ZM53.408 70.4382L54.2786 70.1529L53.6156 68.3177L52.745 68.603L53.408 70.4382ZM52.9613 69.5158C53.2361 70.3945 53.5195 71.1371 53.8158 71.7279C54.1015 72.2974 54.4442 72.819 54.8832 73.1603L56.1946 71.6568C56.1057 71.5876 55.9192 71.3753 55.6742 70.887C55.44 70.4201 55.1913 69.7812 54.9328 68.9548L52.9613 69.5158ZM54.8848 73.1615C55.1527 73.3689 55.4254 73.5579 55.6808 73.6788C55.8028 73.7365 55.995 73.8152 56.2252 73.8371C56.475 73.861 56.8903 73.8213 57.2097 73.4858L55.6852 72.1912C55.8066 72.0636 55.9574 71.9795 56.1096 71.9362C56.2521 71.8956 56.3717 71.8973 56.4437 71.9041C56.5733 71.9165 56.6394 71.9545 56.61 71.9406C56.5626 71.9181 56.4309 71.8397 56.193 71.6555L54.8848 73.1615ZM55.9634 73.6982C56.3009 73.8665 56.6287 73.8206 56.742 73.802C56.8968 73.7767 57.0414 73.7298 57.158 73.6861C57.3962 73.597 57.6745 73.4611 57.9761 73.2985L56.9659 71.6123C56.6934 71.7591 56.5141 71.8418 56.4111 71.8804C56.3571 71.9006 56.3603 71.8948 56.4026 71.8878C56.4254 71.8841 56.4821 71.8762 56.5612 71.8803C56.6379 71.8842 56.7766 71.9016 56.9314 71.9788L55.9634 73.6982ZM57.9989 73.2859C58.7145 72.877 59.253 72.7075 59.6369 72.6776C59.9817 72.6508 60.2096 72.7325 60.4043 72.8978L61.7832 71.4492C61.1387 70.9019 60.3432 70.6743 59.4804 70.7414C58.6568 70.8055 57.8035 71.1333 56.9431 71.6249L57.9989 73.2859ZM60.3096 72.8059L60.7465 73.2908L62.3148 72.026L61.8779 71.5411L60.3096 72.8059ZM60.8412 73.3827C60.9726 73.4943 61.1045 73.5472 61.1399 73.5615C61.196 73.5842 61.246 73.5994 61.2789 73.6087C61.3459 73.6277 61.414 73.6423 61.4707 73.6533C61.5879 73.6763 61.7366 73.6996 61.9069 73.7236C62.2516 73.772 62.743 73.8309 63.3744 73.9C64.6403 74.0385 66.505 74.222 68.9648 74.4503L69.1779 72.5168C66.721 72.2888 64.8706 72.1066 63.6229 71.97C62.9976 71.9016 62.5325 71.8456 62.2213 71.8019C62.0635 71.7797 61.9594 71.7626 61.8988 71.7507C61.8666 71.7444 61.8645 71.7431 61.8802 71.7475C61.8874 71.7495 61.9164 71.7578 61.9562 71.7739C61.9754 71.7816 62.0957 71.8283 62.2201 71.9341L60.8412 73.3827ZM68.9648 74.4503C73.8929 74.9078 78.0832 75.2062 81.5321 75.3443L81.6314 73.4033C78.2331 73.2672 74.0831 72.9721 69.1779 72.5168L68.9648 74.4503ZM81.6332 75.3437C82.3983 75.3031 83.1717 75.0954 83.7098 74.5302L82.1853 73.2356C82.164 73.258 82.0269 73.3776 81.5303 73.4039L81.6332 75.3437ZM83.7098 74.5302C83.9643 74.2628 84.2071 73.8544 84.4382 73.4111C84.6836 72.9403 84.9639 72.3336 85.2782 71.5989L83.373 70.8801C83.0682 71.5929 82.8092 72.1505 82.5953 72.5609C82.3671 72.9987 82.2304 73.1882 82.1853 73.2356L83.7098 74.5302ZM83.9527 72.1468L84.888 72.4857L85.6338 70.6711L84.6985 70.3322L83.9527 72.1468ZM84.2998 71.2396C84.0315 71.9102 83.8255 72.4998 83.6892 73.0017C83.5573 73.4877 83.472 73.9569 83.4935 74.362L85.5465 74.2531C85.5406 74.1415 85.5651 73.8976 85.6802 73.4739C85.7909 73.0661 85.969 72.5494 86.222 71.9172L84.2998 71.2396ZM83.4935 74.362C83.5351 75.1453 83.8869 75.8196 84.5011 76.3412L85.88 74.8925C85.655 74.7015 85.5598 74.503 85.5465 74.2531L83.4935 74.362ZM84.5011 76.3412L86.6211 78.1414L88 76.6928L85.88 74.8925L84.5011 76.3412ZM86.6211 78.1414C86.9149 78.3909 87.4852 78.7595 88.1899 78.5531L87.5921 76.6977C87.7688 76.6459 87.917 76.6748 87.9911 76.7014C88.0514 76.7231 88.0543 76.7389 88 76.6928L86.6211 78.1414ZM88.1201 78.5711C88.2921 78.5329 88.4233 78.5055 88.5173 78.4878C88.5643 78.4788 88.5967 78.4733 88.617 78.4703C88.6434 78.4663 88.632 78.469 88.6001 78.4707L88.4972 76.531C88.3017 76.5413 87.9787 76.6095 87.6619 76.6798L88.1201 78.5711ZM88.9221 78.4037C88.902 78.4112 88.9881 78.3737 89.2705 78.4346C89.544 78.4936 89.9184 78.6272 90.406 78.8669L91.3631 77.1421C90.7897 76.8603 90.2443 76.6493 89.7391 76.5403C89.2429 76.4333 88.6916 76.4047 88.1752 76.598L88.9221 78.4037ZM90.406 78.8669C91.5404 79.4245 92.6817 79.8199 93.8287 80.0436L94.2557 78.1408C93.3145 77.9572 92.3506 77.6275 91.3631 77.1421L90.406 78.8669ZM93.8527 80.048C94.9377 80.2342 95.8501 80.3466 96.5733 80.3742L96.6686 78.433C96.0818 78.4106 95.2749 78.3154 94.2317 78.1364L93.8527 80.048ZM96.5733 80.3742C97.4599 80.4081 98.2938 80.1641 98.9051 79.5219L97.3806 78.2273C97.2729 78.3405 97.0922 78.4492 96.6686 78.433L96.5733 80.3742ZM98.9051 79.5219C99.2917 79.1158 99.5398 78.6305 99.605 78.0816C99.6689 77.5447 99.5502 77.0143 99.3241 76.5122C98.8833 75.533 97.9661 74.5117 96.7166 73.4507L95.3377 74.8994C96.5174 75.9012 97.1675 76.6946 97.4319 77.2819C97.5584 77.5631 97.5769 77.7538 97.5623 77.8761C97.5492 77.9864 97.5035 78.0982 97.3806 78.2273L98.9051 79.5219ZM96.6666 73.4109L92.2862 70.1466L91.0075 71.6749L95.3878 74.9392L96.6666 73.4109ZM92.3363 70.1864C91.8606 69.7824 91.1867 68.998 90.3063 67.7618L88.5988 68.8532C89.4958 70.1128 90.2848 71.0639 90.9574 71.6351L92.3363 70.1864ZM90.3063 67.7618C89.4094 66.5022 88.6204 65.5511 87.9478 64.9799L86.5689 66.4285C87.0446 66.8325 87.7185 67.6169 88.5988 68.8532L90.3063 67.7618ZM87.8984 64.9405L81.2451 59.9738L79.965 61.5011L86.6183 66.4679L87.8984 64.9405ZM81.1016 59.8841L79.0527 58.8273L78.0596 60.5339L80.1085 61.5908L81.1016 59.8841ZM79.0351 58.8184C78.4448 58.5279 77.8003 58.5413 77.2092 58.6949C76.6269 58.8461 76.0234 59.1496 75.4107 59.548C74.1834 60.3459 72.7218 61.6558 71.0362 63.4266L72.5607 64.7212C74.2109 62.9876 75.5435 61.8131 76.5688 61.1465C77.0823 60.8127 77.4697 60.639 77.7429 60.568C77.8748 60.5337 77.9613 60.5284 78.0113 60.5307C78.057 60.5327 78.0736 60.541 78.0771 60.5427L79.0351 58.8184ZM71.0362 63.4266C69.5076 65.0325 68.4965 67.2951 67.9243 70.1156L69.943 70.4704C70.4741 67.8527 71.3728 65.9692 72.5607 64.7212L71.0362 63.4266ZM69.1214 69.3369L68.451 69.223L68.0756 71.1352L68.746 71.2491L69.1214 69.3369ZM69.2743 70.3487C69.7597 67.8451 69.8198 65.8039 69.2523 64.3891L67.3296 65.0874C67.6856 65.9747 67.7272 67.5608 67.2524 70.0096L69.2743 70.3487ZM69.2677 64.4305C69.2692 64.4346 69.2535 64.3832 69.2196 64.2299C69.1892 64.0923 69.1508 63.9047 69.1043 63.6644C69.0115 63.1845 68.8896 62.5125 68.7384 61.6459L66.7101 61.9732C66.862 62.8438 66.9862 63.5286 67.0822 64.025C67.1711 64.4848 67.2498 64.8607 67.3141 65.046L69.2677 64.4305ZM68.7367 61.6365C68.5681 60.726 68.3639 59.9459 68.1148 59.3142C67.8727 58.7002 67.5535 58.1348 67.0979 57.7479L65.719 59.1966C65.8155 59.2785 65.9916 59.5038 66.1881 60.0022C66.3776 60.4829 66.5553 61.137 66.7118 61.9826L68.7367 61.6365ZM67.0979 57.7479C66.6627 57.3783 66.0627 57.1213 65.4068 56.9273C64.7336 56.7283 63.9113 56.5702 62.9555 56.4457L62.6628 58.3703C63.5543 58.4865 64.2556 58.6261 64.7823 58.7818C65.3262 58.9426 65.6021 59.0973 65.719 59.1966L67.0979 57.7479ZM63.8142 57.6053L64.0191 56.6978L62.0089 56.3033L61.804 57.2107L63.8142 57.6053ZM62.8114 57.454C64.2384 57.717 65.4162 57.8382 66.2212 57.7162L65.9075 55.798C65.4992 55.8599 64.6433 55.81 63.2166 55.547L62.8114 57.454ZM66.251 57.7112C67.1355 57.5518 67.8913 57.1039 68.5156 56.448L66.9911 55.1534C66.6167 55.5468 66.2465 55.7364 65.8777 55.8029L66.251 57.7112ZM68.5156 56.448C69.1303 55.8022 69.5332 55.0398 69.4878 54.1844L67.4348 54.2934C67.4442 54.4712 67.3751 54.75 66.9911 55.1534L68.5156 56.448ZM69.489 54.2204C69.4822 53.7287 69.2822 53.2245 69.0294 52.7574C68.766 52.2706 68.3899 51.7254 67.9191 51.128L66.2679 52.2947C66.7015 52.8447 67.0056 53.2946 67.1981 53.6503C67.4013 54.0257 67.4329 54.2115 67.4336 54.2575L69.489 54.2204ZM67.7283 52.4717L68.9757 51.5388L67.7061 50.0181L66.4587 50.951L67.7283 52.4717ZM67.5228 51.3711C68.1142 52.1028 68.6216 52.6681 69.0286 53.0137L70.4075 51.565C70.1519 51.348 69.7412 50.9061 69.159 50.1858L67.5228 51.3711ZM69.0286 53.0137C69.7438 53.621 70.6698 53.7394 71.5962 53.5894C72.5042 53.4423 73.5219 53.0258 74.6243 52.4156L73.5934 50.7407C72.5856 51.2985 71.8165 51.5845 71.2608 51.6745C70.7236 51.7615 70.5093 51.6515 70.4075 51.565L69.0286 53.0137ZM74.6331 52.4107C78.1298 50.4308 81.8047 47.3955 85.6609 43.3443L84.1364 42.0497C80.3623 46.0147 76.844 48.9001 73.5845 50.7456L74.6331 52.4107ZM85.6609 43.3443C86.0839 42.8999 86.4641 42.2776 86.8188 41.5408C87.1793 40.7922 87.5395 39.8693 87.9017 38.7818L85.9413 38.2085C85.5942 39.2508 85.2626 40.093 84.9487 40.745C84.6291 41.4089 84.3526 41.8226 84.1364 42.0497L85.6609 43.3443ZM86.5645 39.4081L87.0156 39.5634L87.7297 37.7376L87.2786 37.5822L86.5645 39.4081ZM86.3914 38.3671C85.993 39.5775 85.7107 40.6287 85.5543 41.5122C85.4009 42.3782 85.3537 43.1599 85.4887 43.7952L87.5042 43.4017C87.4424 43.111 87.4429 42.6051 87.5816 41.8217C87.7172 41.056 87.9714 40.0962 88.3539 38.934L86.3914 38.3671ZM85.4819 43.7597C85.5079 43.9108 85.5753 44.4183 85.6872 45.32L87.7289 45.0823C87.6197 44.2025 87.5461 43.6415 87.511 43.4372L85.4819 43.7597ZM85.6876 45.323C85.796 46.1742 85.8691 46.7632 85.9074 47.094L87.9508 46.8713C87.9112 46.5288 87.8369 45.9301 87.7285 45.0793L85.6876 45.323ZM85.9169 47.157C85.9739 47.4624 86.0641 47.9872 86.1883 48.7376L88.2193 48.4262C88.0951 47.6756 88.0021 47.1342 87.9413 46.8083L85.9169 47.157ZM86.1934 48.7658C86.341 49.513 86.4984 50.1313 86.6725 50.5932L88.6093 49.9314C88.4889 49.6119 88.3548 49.11 88.2141 48.3981L86.1934 48.7658ZM86.673 50.5945C87.1451 51.8412 87.6407 52.8353 88.1926 53.4516L89.7649 52.1911C89.465 51.8563 89.0687 51.1444 88.6088 49.9301L86.673 50.5945ZM88.6134 53.7313L93.0944 55.3166L93.8251 53.4966L89.3441 51.9113L88.6134 53.7313ZM93.8728 53.5148C93.2695 53.268 92.6334 53.2686 92.0263 53.4902C91.452 53.6999 90.9448 54.0904 90.4943 54.5637L92.0188 55.8582C92.3473 55.5131 92.5968 55.3604 92.7569 55.302C92.8842 55.2555 92.9602 55.2631 93.0467 55.2985L93.8728 53.5148ZM90.4943 54.5637C89.5668 55.5381 88.8861 56.4576 88.5835 57.304C88.4283 57.7383 88.3551 58.2016 88.444 58.6634C88.536 59.1415 88.7892 59.5483 89.1624 59.8652L90.5413 58.4166C90.4839 58.3678 90.4726 58.3366 90.4664 58.3044C90.4571 58.2558 90.4517 58.1366 90.5306 57.9158C90.6963 57.4522 91.1486 56.7725 92.0188 55.8582L90.4943 54.5637ZM89.1624 59.8652L90.918 61.3561L92.2969 59.9074L90.5413 58.4166L89.1624 59.8652ZM90.918 61.3561C91.6512 61.9787 92.2211 62.5139 92.6381 62.964C93.0655 63.4253 93.2883 63.751 93.3811 63.9546L95.2698 63.1771C95.0523 62.6998 94.6669 62.196 94.1883 61.6793C93.6993 61.1514 93.0654 60.56 92.2969 59.9074L90.918 61.3561ZM93.3958 63.9855C93.7256 64.6446 93.9378 65.0943 94.0447 65.3528L95.9598 64.636C95.8248 64.3096 95.5857 63.807 95.255 63.1462L93.3958 63.9855ZM94.0294 65.3132C94.0877 65.4747 94.1534 65.6325 94.2295 65.7741C94.2974 65.9007 94.411 66.0868 94.5936 66.2418L95.9725 64.7931C96.0264 64.8389 96.0551 64.8769 96.0631 64.8879C96.0724 64.9006 96.0721 64.9023 96.0637 64.8868C96.0558 64.872 96.0437 64.8476 96.028 64.811C96.0125 64.7747 95.9948 64.73 95.9751 64.6756L94.0294 65.3132ZM94.5832 66.2328L108.879 78.7141L110.279 77.2833L95.9829 64.8021L94.5832 66.2328ZM108.889 78.723C109.604 79.3296 110.533 79.1503 111.171 78.9116C111.866 78.6514 112.668 78.1628 113.556 77.5107L112.301 75.9793C111.464 76.5943 110.845 76.9482 110.424 77.1059C109.945 77.2851 110.062 77.0991 110.268 77.2744L108.889 78.723ZM112.083 77.3018L112.526 77.9059L114.218 76.7923L113.774 76.1882L112.083 77.3018ZM112.719 76.6027C112.091 77.0945 111.614 77.4697 111.288 77.7277C111.125 77.8564 110.998 77.9574 110.909 78.0297C110.864 78.0656 110.826 78.0967 110.796 78.1215C110.791 78.1256 110.722 78.1817 110.667 78.2395L112.191 79.5341C112.146 79.5814 112.106 79.6123 112.149 79.5765C112.167 79.5614 112.196 79.5379 112.237 79.5044C112.32 79.4381 112.441 79.3417 112.602 79.2141C112.924 78.9595 113.398 78.5868 114.025 78.0956L112.719 76.6027ZM110.667 78.2395C110.391 78.5295 110.186 78.8771 110.102 79.2785C110.018 79.6784 110.066 80.0711 110.197 80.436C110.448 81.1338 111.022 81.7863 111.742 82.3972L113.121 80.9485C112.493 80.4155 112.227 80.0317 112.144 79.8009C112.108 79.7013 112.116 79.6567 112.118 79.646C112.12 79.6368 112.128 79.6008 112.191 79.5341L110.667 78.2395ZM111.742 82.3972C112.038 82.6493 112.72 83.2087 113.775 84.0671L115.122 82.5912C114.061 81.7288 113.398 81.184 113.121 80.9485L111.742 82.3972ZM113.776 84.0673C114.805 84.9039 115.523 85.5335 115.951 85.967L117.457 84.636C116.95 84.1229 116.163 83.4377 115.121 82.5909L113.776 84.0673ZM115.677 85.2753C115.653 85.9723 115.872 86.6444 116.453 87.1383L117.832 85.6896C117.796 85.6584 117.722 85.5889 117.731 85.3278L115.677 85.2753ZM116.518 87.1885L118.261 88.4409L119.511 86.8918L117.768 85.6393L116.518 87.1885ZM118.196 88.3907C119.226 89.2649 120.029 89.9844 120.612 90.5526C121.218 91.1436 121.519 91.5068 121.62 91.6807L123.423 90.7378C123.176 90.3125 122.697 89.7856 122.092 89.1957C121.463 88.5829 120.622 87.8305 119.575 86.942L118.196 88.3907ZM121.613 91.6688C121.976 92.314 122.394 92.8656 122.884 93.2824L124.263 91.8338C124.003 91.613 123.72 91.2654 123.43 90.7497L121.613 91.6688ZM122.884 93.2824C123.241 93.5848 123.791 93.7897 124.326 93.9504C124.911 94.1261 125.666 94.3003 126.578 94.4752L126.999 92.5712C126.121 92.4027 125.445 92.2444 124.959 92.0984C124.423 91.9374 124.261 91.8314 124.263 91.8338L122.884 93.2824ZM125.807 93.239L125.617 93.817L127.579 94.3854L127.769 93.8074L125.807 93.239ZM126.478 93.1371C126.174 93.1724 125.784 93.2127 125.306 93.2578L125.498 95.191C125.985 95.1451 126.392 95.1032 126.717 95.0653L126.478 93.1371ZM125.351 93.2545C124.888 93.2791 124.512 93.3084 124.261 93.3482L124.59 95.264C124.716 95.244 124.991 95.2188 125.454 95.1943L125.351 93.2545ZM124.374 93.3362C124.133 93.349 123.846 93.3756 123.519 93.4137L123.758 95.3419C124.06 95.3067 124.298 95.2855 124.477 95.276L124.374 93.3362ZM123.587 93.4079C123.259 93.4253 122.873 93.4597 122.575 93.5713L123.321 95.3771C123.292 95.3881 123.279 95.3902 123.29 95.3877C123.3 95.3855 123.321 95.3813 123.358 95.3762C123.432 95.3659 123.541 95.3556 123.69 95.3476L123.587 93.4079ZM122.897 93.5043C122.672 93.5162 122.43 93.5627 122.195 93.6202L122.698 95.5009C122.88 95.4566 122.972 95.4455 123 95.4441L122.897 93.5043ZM122.302 93.5996C122.043 93.6359 121.775 93.6884 121.542 93.7756L122.288 95.5813C122.288 95.5815 122.294 95.5791 122.309 95.575C122.323 95.5709 122.343 95.5657 122.37 95.5598C122.424 95.5478 122.497 95.5347 122.591 95.5215L122.302 93.5996ZM121.634 93.7457C121.235 93.8551 120.867 94.0343 120.532 94.2714L121.756 95.8249C121.908 95.7172 122.054 95.65 122.196 95.6112L121.634 93.7457ZM121.906 95.6954L122.026 95.5695L120.501 94.2749L120.382 94.4008L121.906 95.6954ZM120.759 94.0791C120.459 94.2405 120.192 94.4744 119.956 94.7223L121.48 96.0169C121.644 95.8451 121.74 95.7808 121.769 95.7653L120.759 94.0791ZM119.956 94.7223C119.468 95.2345 119.305 95.9403 119.27 96.6199C119.233 97.3267 119.325 98.1784 119.519 99.1515L121.539 98.7806C121.36 97.8806 121.297 97.1964 121.323 96.7045C121.35 96.1852 121.468 96.0293 121.48 96.0169L119.956 94.7223ZM120.372 98.0069L119.462 98.1449L119.776 100.063L120.686 99.9251L120.372 98.0069ZM120.637 98.9599C120.503 98.0852 120.344 97.3469 120.152 96.7638C119.973 96.2213 119.718 95.6578 119.291 95.2955L117.912 96.7442C117.905 96.7382 118.029 96.8669 118.189 97.3524C118.336 97.7974 118.476 98.423 118.602 99.2481L120.637 98.9599ZM119.291 95.2955C118.626 94.731 117.787 94.4855 116.872 94.4832L116.855 96.426C117.374 96.4273 117.694 96.5587 117.912 96.7442L119.291 95.2955ZM116.932 94.485C116.015 94.432 115.121 94.6415 114.483 95.3116L116.008 96.6062C116.089 96.5208 116.273 96.3941 116.795 96.4242L116.932 94.485ZM114.483 95.3116C114.199 95.6101 113.96 96.012 113.749 96.4495C113.531 96.9002 113.315 97.4505 113.098 98.0907L115.056 98.6732C115.258 98.0757 115.446 97.6033 115.618 97.2464C115.797 96.8762 115.932 96.6853 116.008 96.6062L114.483 95.3116ZM114.369 97.4489L113.181 97.1234L112.598 98.9895L113.785 99.315L114.369 97.4489ZM113.866 98.3538C114.2 97.3894 114.4 96.5278 114.413 95.7998C114.427 95.0844 114.26 94.3244 113.644 93.802L112.266 95.2506C112.266 95.2507 112.266 95.2512 112.268 95.2527C112.269 95.2542 112.271 95.2573 112.275 95.2627C112.282 95.2735 112.295 95.2958 112.308 95.335C112.336 95.4167 112.362 95.557 112.358 95.7773C112.35 96.2261 112.219 96.8764 111.913 97.7591L113.866 98.3538ZM113.644 93.802C112.696 92.9962 111.286 92.2011 109.48 91.403L108.6 93.1637C110.336 93.931 111.536 94.6312 112.266 95.2506L113.644 93.802ZM109.497 91.4108C107.691 90.573 106.139 90.012 104.863 89.7703L104.447 91.6753C105.472 91.8694 106.843 92.3487 108.583 93.1559L109.497 91.4108ZM104.379 91.6601C104.469 91.6832 104.523 91.7031 104.551 91.715C104.563 91.7206 104.566 91.7225 104.561 91.7194C104.555 91.7163 104.539 91.7062 104.516 91.6869L105.895 90.2383C105.607 89.9933 105.238 89.8646 104.931 89.7855L104.379 91.6601ZM104.516 91.6869C104.357 91.5519 104.479 91.4927 104.456 91.9703C104.436 92.3792 104.318 92.9854 104.067 93.8172L106.043 94.3405C106.312 93.4511 106.479 92.6773 106.509 92.0475C106.537 91.4863 106.474 90.7296 105.895 90.2383L104.516 91.6869ZM105.293 93.1325L103.757 92.7956L103.281 94.6883L104.817 95.0252L105.293 93.1325ZM104.514 93.9792C104.691 93.3297 104.803 92.9248 104.854 92.7533L102.874 92.2432C102.817 92.4361 102.699 92.8602 102.523 93.5047L104.514 93.9792ZM104.88 92.6351C104.906 92.4711 104.94 92.3192 104.982 92.1787L103.001 91.6686C102.935 91.8924 102.884 92.1236 102.847 92.3615L104.88 92.6351ZM105.008 92.0604C105.044 91.8335 105.067 91.6011 105.056 91.389L103.003 91.4979C103.004 91.5242 103.002 91.6119 102.975 91.7868L105.008 92.0604ZM105.038 91.2524C104.957 90.8559 104.778 90.4284 104.402 90.1083L103.023 91.557C102.989 91.5286 102.98 91.508 102.984 91.5159C102.989 91.5258 103.005 91.5612 103.02 91.6345L105.038 91.2524ZM104.402 90.1083C104.126 89.8747 103.745 89.7514 103.477 89.6759C103.158 89.5858 102.759 89.5027 102.294 89.4238L101.919 91.336C102.348 91.4089 102.663 91.4772 102.879 91.5379C102.987 91.5683 103.053 91.5922 103.088 91.6071C103.134 91.6264 103.092 91.6155 103.023 91.557L104.402 90.1083ZM102.312 89.4269C99.7893 88.9552 96.9117 88.8547 93.6922 89.107L93.8498 91.0431C96.9305 90.8017 99.61 90.9044 101.901 91.3329L102.312 89.4269ZM93.7765 89.1037C92.8502 89.1042 91.9571 89.337 91.3307 89.995L92.8552 91.2896C92.9479 91.1922 93.1735 91.0468 93.7654 91.0465L93.7765 89.1037ZM91.3307 89.995C90.8382 90.5124 90.3478 91.4295 89.8424 92.5869L91.7418 93.3188C92.2518 92.151 92.6286 91.5276 92.8552 91.2896L91.3307 89.995ZM91.2456 92.0786L90.3702 91.6767L89.4632 93.4253L90.3386 93.8271L91.2456 92.0786ZM90.8449 92.9629C91.3295 91.9969 91.6627 91.1345 91.7957 90.3992C91.9236 89.692 91.9023 88.8926 91.3744 88.2822L89.7797 89.5171C89.746 89.4782 89.8618 89.5731 89.7696 90.0831C89.6824 90.5649 89.4384 91.2424 88.9885 92.1392L90.8449 92.9629ZM91.2665 88.1753L91.134 88.0628L89.755 89.5115L89.8875 89.624L91.2665 88.1753ZM90.9285 87.9275C90.4485 87.688 89.843 87.6671 89.3111 87.6954L89.414 89.6351C89.6278 89.6238 89.7809 89.6286 89.8838 89.6402C89.9938 89.6526 90.0028 89.6679 89.9605 89.6468L90.9285 87.9275ZM89.0374 87.7456C87.895 88.1121 86.5958 88.3043 85.1287 88.3073L85.1207 90.2501C86.7743 90.2468 88.3004 90.03 89.6877 89.5849L89.0374 87.7456ZM85.1417 88.3073C83.675 88.2928 82.6255 88.0219 81.9042 87.5847L80.7871 89.2219C81.9397 89.9205 83.4095 90.2332 85.1078 90.25L85.1417 88.3073Z" fill="#1018D9"/>
</g>
<path d="M186.351 63.3668L186.279 70.1355L185.227 76.7831L177.717 86.5294L165.49 103.995L149.872 118.403L130.005 125.097L124.957 130.403L122.71 133.03L120.321 133.703C120.321 133.703 126.744 119.102 127.234 119.163C127.724 119.223 131.942 119.914 131.942 119.914L148.947 112.673L126.395 116.203L111.976 123.328L105.607 129.318L104.015 129.46L111.63 112.586L113.446 111.479L117.789 115.139L140.08 106.954L155.261 96.3644L161.281 80.552L131.161 82.4683L135.39 78.5856L96.9523 60.9321L116.447 60.8005L82.3495 26.8364L108.466 34.4463L88.898 5.88499L143.123 43.233L137.204 33.3031L163.421 54.5533L133.72 26.9178L136.639 36.5736L125.751 30.8464L118.306 9.5206L159.107 44.0956L151.198 29.6111L172.765 55.6115L175.897 53.8445L171.616 49.3455L174.015 40.4923L183.221 39.113L189.104 45.819L191.628 47.1477L189.762 48.4179L191.294 51.5119L187.961 52.8911L184.8 57.3899L186.351 63.3668Z" fill="url(#paint1_linear_8_28)"/>
<g filter="url(#filter1_d_8_28)">
<path d="M68.1978 157.094C68.1978 157.134 68.1911 157.268 68.1777 157.495C68.1644 157.722 68.091 158.008 67.9575 158.355C67.8374 158.689 67.6305 159.056 67.3369 159.457C67.0433 159.857 66.6095 160.244 66.0356 160.618C65.8888 160.925 65.742 161.165 65.5952 161.338C65.4484 161.512 65.3617 161.612 65.335 161.639L65.1748 161.859L64.8745 161.819C64.4074 161.752 63.9937 161.699 63.6333 161.659C63.2863 161.619 62.966 161.599 62.6724 161.599C62.3654 161.599 62.0785 161.619 61.8115 161.659C61.5446 161.699 61.271 161.759 60.9907 161.839C60.7238 161.919 60.4368 162.026 60.1299 162.159C59.8363 162.279 59.5093 162.426 59.1489 162.6L58.8486 162.64C58.5016 162.64 58.1613 162.626 57.8276 162.6C57.5073 162.56 57.2204 162.54 56.9668 162.54C56.6064 162.54 56.2795 162.56 55.9858 162.6C55.7056 162.64 55.4253 162.706 55.145 162.8C54.8647 162.893 54.5645 163.013 54.2441 163.16C53.9238 163.307 53.5501 163.487 53.123 163.701L52.9028 163.821L52.7427 163.781C52.2355 163.607 51.7884 163.34 51.4014 162.98C51.0677 162.673 50.7607 162.239 50.4805 161.679C50.2135 161.118 50.0801 160.384 50.0801 159.477C50.0801 158.916 50.1535 158.442 50.3003 158.055C50.4604 157.668 50.634 157.354 50.8208 157.114C51.021 156.874 51.2012 156.701 51.3613 156.594C51.5215 156.474 51.6149 156.407 51.6416 156.394L51.8018 156.273L52.002 156.313C52.4157 156.394 52.776 156.454 53.083 156.494C53.39 156.534 53.6769 156.554 53.9438 156.554C54.1841 156.554 54.4176 156.54 54.6445 156.514C54.8848 156.474 55.1383 156.42 55.4053 156.354C55.6722 156.273 55.9658 156.18 56.2861 156.073C56.6198 155.953 57.0135 155.813 57.4673 155.653L57.6274 155.573L57.7876 155.613C58.4149 155.746 58.9754 155.833 59.4692 155.873C59.3091 155.619 59.1156 155.373 58.8887 155.132C58.6751 154.879 58.4482 154.618 58.208 154.352L58.0679 154.151C57.881 153.471 57.6742 152.85 57.4473 152.29C57.2204 151.716 56.9535 151.182 56.6465 150.688C56.3529 150.194 56.0192 149.727 55.6455 149.287C55.2718 148.846 54.8514 148.412 54.3843 147.985L54.2241 147.865V147.705C53.9972 146.344 53.5835 145.103 52.9829 143.981C52.3823 142.847 51.5815 141.819 50.5806 140.898L50.4004 140.738V140.498C50.4004 140.485 50.4137 140.425 50.4404 140.318C50.4671 140.211 50.5138 140.071 50.5806 139.897C50.6473 139.724 50.7474 139.524 50.8809 139.297C51.0143 139.07 51.1878 138.836 51.4014 138.596C51.3747 138.529 51.3613 138.469 51.3613 138.416C51.3613 138.363 51.3613 138.303 51.3613 138.236C51.3613 137.675 51.4347 137.201 51.5815 136.814C51.7417 136.427 51.9152 136.114 52.1021 135.874C52.2889 135.633 52.4624 135.46 52.6226 135.353C52.7827 135.233 52.8761 135.166 52.9028 135.153L53.083 135.073L53.2832 135.113C54.0306 135.286 54.6579 135.373 55.165 135.373C55.4053 135.373 55.6322 135.36 55.8457 135.333C56.0592 135.293 56.2861 135.24 56.5264 135.173C56.7799 135.093 57.0535 135.006 57.3472 134.913C57.6408 134.819 57.9811 134.712 58.3682 134.592C58.4349 134.566 58.495 134.546 58.5483 134.532C58.6017 134.506 58.6618 134.472 58.7285 134.432L58.8887 134.332L59.0688 134.372C59.5627 134.479 59.9964 134.559 60.3701 134.612C60.7572 134.652 61.1108 134.672 61.4312 134.672C62.0317 134.672 62.6123 134.586 63.1729 134.412C63.7334 134.239 64.4141 133.972 65.2148 133.611L65.4551 133.471L65.6953 133.611C65.7087 133.625 65.7954 133.685 65.9556 133.792C66.1291 133.898 66.3226 134.072 66.5361 134.312C66.7497 134.552 66.9632 134.866 67.1768 135.253C67.3903 135.64 67.5438 136.114 67.6372 136.674C67.6639 136.821 67.6839 136.975 67.6973 137.135C67.7106 137.282 67.7173 137.415 67.7173 137.535C67.7173 137.989 67.6639 138.396 67.5571 138.756C67.4504 139.103 67.3302 139.404 67.1968 139.657C67.0633 139.897 66.9365 140.091 66.8164 140.238C66.7096 140.371 66.6496 140.445 66.6362 140.458L66.436 140.618L66.1558 140.578C65.702 140.511 65.2949 140.465 64.9346 140.438C64.5876 140.398 64.2673 140.378 63.9736 140.378C63.6667 140.378 63.3797 140.398 63.1128 140.438C62.8459 140.465 62.5723 140.518 62.292 140.598C62.0251 140.678 61.7381 140.785 61.4312 140.918C61.1242 141.039 60.7839 141.185 60.4102 141.359L60.29 141.439L60.1299 141.399C59.7962 141.399 59.4959 141.392 59.229 141.379C58.9621 141.366 58.7152 141.359 58.4883 141.359C58.7552 141.813 59.0488 142.246 59.3691 142.66C59.7028 143.061 60.0765 143.448 60.4902 143.821L60.6104 144.021C60.8105 144.742 61.0241 145.403 61.251 146.003C61.4779 146.591 61.7381 147.138 62.0317 147.645C62.3254 148.139 62.659 148.606 63.0327 149.046C63.4198 149.487 63.8602 149.914 64.354 150.328L64.5142 150.628C64.6476 151.322 64.8011 151.949 64.9746 152.51C65.1615 153.057 65.3883 153.571 65.6553 154.051C65.9355 154.532 66.2625 154.992 66.6362 155.433C67.0233 155.873 67.4904 156.32 68.0376 156.774L68.1577 156.894L68.1978 157.094ZM90.1207 153.03L90.0407 153.21C89.5468 154.572 89.2999 155.866 89.2999 157.094C89.2999 157.695 89.3533 158.295 89.4601 158.896C89.5802 159.497 89.7537 160.137 89.9806 160.818L90.0807 161.038L89.9806 161.198C89.9673 161.225 89.8939 161.345 89.7604 161.559C89.6269 161.759 89.4067 161.979 89.0997 162.219C88.7928 162.459 88.379 162.68 87.8585 162.88C87.338 163.067 86.6841 163.16 85.8966 163.16C85.1092 163.16 84.4552 163.06 83.9347 162.86C83.4275 162.646 83.0272 162.413 82.7335 162.159C82.4399 161.892 82.233 161.652 82.1129 161.438C81.9928 161.225 81.9261 161.105 81.9127 161.078L81.8327 160.878L81.9127 160.698C82.2197 159.964 82.4466 159.25 82.5934 158.556C82.7402 157.862 82.8136 157.154 82.8136 156.434C82.8136 155.94 82.7802 155.433 82.7135 154.912C82.6601 154.378 82.56 153.811 82.4132 153.21V152.95C82.6001 152.27 82.7335 151.629 82.8136 151.028C82.8937 150.428 82.9337 149.84 82.9337 149.267C82.9337 148.052 82.7269 146.824 82.3131 145.583L82.233 145.403L82.3131 145.243C82.6067 144.522 82.8136 143.801 82.9337 143.081C83.0672 142.347 83.1473 141.619 83.174 140.898H82.9738C81.6124 140.898 80.2578 141.145 78.9098 141.639L78.7496 141.679L78.5495 141.599C78.5228 141.599 78.4026 141.539 78.1891 141.419C77.9756 141.299 77.7353 141.092 77.4684 140.798C77.2148 140.505 76.9879 140.111 76.7877 139.617C76.5742 139.11 76.4674 138.469 76.4674 137.695C76.4674 136.975 76.5675 136.387 76.7677 135.934C76.9679 135.466 77.1881 135.099 77.4284 134.833C77.6819 134.552 77.9088 134.359 78.109 134.252C78.3226 134.132 78.4427 134.065 78.4694 134.052L78.6295 133.972L78.8297 134.052C79.417 134.265 80.0042 134.419 80.5914 134.512C81.1787 134.592 81.7859 134.632 82.4132 134.632C82.9738 134.632 83.5744 134.612 84.215 134.572C84.869 134.519 85.4829 134.385 86.0568 134.172L86.2169 134.092L86.3771 134.172C87.0578 134.399 87.6984 134.566 88.299 134.672C88.9129 134.779 89.5202 134.833 90.1207 134.833C91.2018 134.833 92.3896 134.626 93.6842 134.212L93.9245 134.132L94.1246 134.292C94.138 134.305 94.2247 134.379 94.3849 134.512C94.5451 134.646 94.7119 134.853 94.8854 135.133C95.0722 135.4 95.2391 135.747 95.3859 136.174C95.546 136.588 95.6328 137.081 95.6461 137.655C95.6461 138.256 95.5727 138.783 95.4259 139.237C95.2791 139.677 95.1123 140.051 94.9254 140.358C94.7519 140.652 94.5851 140.878 94.4249 141.039C94.2648 141.185 94.178 141.279 94.1647 141.319L93.9645 141.479L93.6842 141.399C93.0036 141.185 92.3763 141.039 91.8024 140.958C91.2418 140.865 90.6813 140.818 90.1207 140.818H89.5402C89.5135 141.005 89.5068 141.185 89.5202 141.359C89.5335 141.519 89.5402 141.679 89.5402 141.839C89.5402 142.4 89.5735 142.947 89.6403 143.481C89.7204 144.015 89.8338 144.549 89.9806 145.083V145.323C89.7804 146.07 89.6269 146.757 89.5202 147.385C89.4267 148.012 89.38 148.626 89.38 149.227C89.38 149.84 89.4334 150.441 89.5402 151.028C89.6469 151.616 89.8138 152.229 90.0407 152.87L90.1207 153.03ZM114.466 136.434L114.346 136.674C113.972 137.542 113.699 138.396 113.525 139.237C113.365 140.064 113.285 140.892 113.285 141.719C113.285 142.52 113.365 143.327 113.525 144.142V144.422C113.218 145.303 112.985 146.117 112.824 146.864C112.664 147.612 112.584 148.346 112.584 149.066C112.584 149.534 112.618 150.001 112.684 150.468C112.751 150.935 112.858 151.422 113.005 151.929V152.25C112.631 153.05 112.357 153.778 112.184 154.432C112.024 155.086 111.944 155.753 111.944 156.434C112.371 156.327 112.784 156.2 113.185 156.053C113.585 155.893 114.046 155.72 114.566 155.533L114.887 155.453C115.22 155.493 115.534 155.533 115.827 155.573C116.134 155.599 116.435 155.613 116.728 155.613C117.623 155.613 118.483 155.493 119.311 155.252C119.244 154.865 119.171 154.472 119.091 154.071C119.011 153.658 118.91 153.244 118.79 152.83L118.73 152.59C118.837 152.096 118.91 151.609 118.95 151.128C119.004 150.635 119.031 150.134 119.031 149.627C119.031 148.759 118.95 147.912 118.79 147.084C118.63 146.244 118.397 145.423 118.09 144.622V144.302C118.29 143.688 118.43 143.081 118.51 142.48C118.603 141.879 118.65 141.272 118.65 140.658C118.65 139.951 118.583 139.25 118.45 138.556C118.33 137.862 118.136 137.155 117.869 136.434L117.749 136.194L117.929 135.934C117.943 135.92 118.023 135.827 118.17 135.653C118.317 135.48 118.55 135.293 118.87 135.093C119.191 134.893 119.598 134.712 120.092 134.552C120.599 134.379 121.213 134.292 121.933 134.292C122.494 134.292 122.981 134.359 123.395 134.492C123.822 134.626 124.182 134.772 124.476 134.933C124.769 135.093 124.99 135.246 125.137 135.393C125.283 135.527 125.363 135.6 125.377 135.613L125.577 135.813L125.497 136.114C125.177 137.302 125.016 138.463 125.016 139.597C125.016 140.985 125.263 142.32 125.757 143.601V143.901C125.504 145.009 125.377 146.083 125.377 147.125C125.377 148.806 125.704 150.421 126.358 151.969L126.438 152.129L126.398 152.29C126.077 153.451 125.917 154.585 125.917 155.693C125.917 156.52 125.997 157.334 126.158 158.135C126.331 158.936 126.591 159.737 126.938 160.538L127.018 160.698L126.938 160.918C126.925 160.931 126.852 161.058 126.718 161.298C126.598 161.525 126.371 161.779 126.037 162.059C125.717 162.339 125.277 162.593 124.716 162.82C124.156 163.047 123.435 163.16 122.554 163.16C122.007 163.16 121.533 163.107 121.133 163C120.746 162.893 120.412 162.76 120.132 162.6C119.851 162.439 119.624 162.273 119.451 162.099C119.291 161.926 119.164 161.772 119.071 161.639C118.657 161.772 118.25 161.926 117.849 162.099C117.462 162.259 117.062 162.453 116.648 162.68L116.408 162.72C115.727 162.72 115.073 162.733 114.446 162.76C113.832 162.773 113.232 162.826 112.644 162.92C112.07 163 111.497 163.133 110.923 163.32C110.362 163.521 109.795 163.794 109.221 164.141L109.061 164.261L108.861 164.221C108.781 164.181 108.634 164.121 108.42 164.041C108.22 163.974 107.986 163.834 107.72 163.621C107.466 163.42 107.199 163.127 106.919 162.74C106.638 162.339 106.385 161.799 106.158 161.118C105.784 160.945 105.477 160.751 105.237 160.538C104.997 160.311 104.803 160.097 104.657 159.897C104.523 159.697 104.423 159.53 104.356 159.396C104.303 159.25 104.276 159.163 104.276 159.136L104.216 158.936L104.316 158.776C104.743 157.922 105.057 157.134 105.257 156.414C105.471 155.68 105.577 154.879 105.577 154.011C105.577 153.664 105.557 153.304 105.517 152.93C105.491 152.556 105.444 152.156 105.377 151.729V151.489C105.658 150.688 105.871 149.927 106.018 149.207C106.165 148.486 106.238 147.765 106.238 147.044C106.238 146.577 106.198 146.104 106.118 145.623C106.051 145.143 105.951 144.635 105.818 144.102L105.778 143.941L105.858 143.761C106.271 142.92 106.578 142.08 106.779 141.239C106.992 140.398 107.099 139.53 107.099 138.636C107.099 137.769 106.985 136.868 106.759 135.934L106.678 135.653L106.899 135.493C106.912 135.48 106.985 135.406 107.119 135.273C107.252 135.139 107.453 135.006 107.72 134.873C107.986 134.726 108.32 134.592 108.72 134.472C109.134 134.352 109.615 134.292 110.162 134.292C110.856 134.292 111.463 134.392 111.984 134.592C112.504 134.779 112.931 134.993 113.265 135.233C113.612 135.46 113.866 135.673 114.026 135.874C114.199 136.074 114.293 136.18 114.306 136.194L114.466 136.434ZM158.05 151.269L158.01 151.569L157.77 151.689C156.555 152.343 155.514 153.11 154.647 153.991C153.779 154.859 153.059 155.853 152.485 156.974L152.445 157.134L152.325 157.174C151.791 157.495 151.244 157.882 150.683 158.335C150.122 158.789 149.589 159.29 149.081 159.837C148.574 160.371 148.107 160.938 147.68 161.539C147.253 162.139 146.899 162.746 146.619 163.36L146.539 163.541L146.339 163.621C146.312 163.647 146.199 163.687 145.998 163.741C145.812 163.794 145.565 163.821 145.258 163.821C144.951 163.821 144.59 163.761 144.177 163.641C143.776 163.521 143.349 163.307 142.895 163C142.682 163.04 142.462 163.073 142.235 163.1C142.021 163.14 141.788 163.16 141.534 163.16C140.747 163.16 140.093 163.053 139.572 162.84C139.065 162.626 138.658 162.393 138.351 162.139C138.057 161.872 137.851 161.632 137.73 161.418C137.61 161.192 137.55 161.065 137.55 161.038L137.47 160.878L137.55 160.658C137.857 159.924 138.084 159.17 138.231 158.396C138.378 157.621 138.451 156.834 138.451 156.033C138.451 155.473 138.418 154.905 138.351 154.332C138.298 153.758 138.198 153.164 138.051 152.55V152.29C138.211 151.636 138.338 150.995 138.431 150.368C138.538 149.727 138.591 149.086 138.591 148.446C138.591 147.738 138.531 147.044 138.411 146.364C138.291 145.683 138.131 145.009 137.931 144.342L137.891 144.142L137.971 143.981C138.264 143.261 138.478 142.54 138.611 141.819C138.758 141.085 138.831 140.358 138.831 139.637C138.831 139.05 138.785 138.469 138.691 137.896C138.611 137.308 138.478 136.714 138.291 136.114L138.211 135.854L138.371 135.653C138.384 135.64 138.464 135.56 138.611 135.413C138.758 135.253 138.978 135.086 139.272 134.913C139.579 134.726 139.959 134.566 140.413 134.432C140.867 134.285 141.407 134.212 142.035 134.212H142.435C142.929 133.825 143.389 133.571 143.816 133.451C144.257 133.331 144.644 133.271 144.977 133.271C145.271 133.271 145.505 133.291 145.678 133.331C145.865 133.371 145.972 133.391 145.998 133.391L146.179 133.471L146.259 133.691C146.499 134.199 146.813 134.712 147.2 135.233C147.587 135.74 148.014 136.234 148.481 136.714C148.948 137.181 149.442 137.629 149.962 138.056C150.496 138.483 151.023 138.87 151.544 139.217L151.904 139.377L152.064 139.457L152.164 139.637C152.778 140.892 153.539 141.979 154.447 142.9C155.354 143.821 156.435 144.602 157.69 145.243L157.93 145.323L157.97 145.623C157.97 145.65 157.977 145.683 157.99 145.723C157.99 145.75 157.99 145.79 157.99 145.843C158.004 145.883 158.01 145.93 158.01 145.983C158.01 146.237 157.957 146.584 157.85 147.024C157.743 147.465 157.523 147.939 157.189 148.446C157.39 148.726 157.543 149 157.65 149.267C157.77 149.534 157.857 149.787 157.91 150.027C157.977 150.254 158.017 150.461 158.03 150.648C158.044 150.835 158.05 150.975 158.05 151.068V151.269ZM145.758 152.39L145.678 152.55C145.571 152.83 145.478 153.117 145.398 153.411C145.318 153.691 145.244 153.978 145.178 154.271C145.471 153.884 145.758 153.517 146.038 153.17C146.332 152.823 146.552 152.55 146.699 152.35L146.779 152.169L146.939 152.089C148.661 151.222 150.096 150.047 151.244 148.566C150.683 147.845 150.069 147.211 149.402 146.664C148.748 146.104 148.027 145.616 147.24 145.203L147.039 145.002C146.786 144.669 146.526 144.335 146.259 144.001C145.992 143.654 145.718 143.321 145.438 143C145.465 143.147 145.491 143.287 145.518 143.421C145.558 143.541 145.598 143.674 145.638 143.821V144.102C145.224 145.556 145.018 146.951 145.018 148.286C145.018 148.966 145.071 149.634 145.178 150.288C145.284 150.928 145.451 151.569 145.678 152.209L145.758 152.39ZM175.989 136.014L175.869 136.274C175.629 137.008 175.442 137.729 175.309 138.436C175.189 139.13 175.128 139.831 175.128 140.538C175.128 141.099 175.162 141.646 175.229 142.18C175.309 142.7 175.429 143.227 175.589 143.761V144.062C175.175 145.516 174.968 146.911 174.968 148.246C174.968 148.926 175.022 149.594 175.128 150.248C175.235 150.888 175.402 151.529 175.629 152.169L175.709 152.35L175.629 152.51C175.375 153.19 175.189 153.878 175.068 154.572C174.948 155.252 174.888 155.946 174.888 156.654C174.888 157.348 174.942 158.035 175.048 158.716C175.155 159.383 175.335 160.057 175.589 160.738L175.669 160.958L175.589 161.118C175.576 161.145 175.502 161.265 175.369 161.479C175.235 161.679 175.015 161.899 174.708 162.139C174.401 162.379 173.981 162.6 173.447 162.8C172.926 162.987 172.272 163.08 171.485 163.08C170.697 163.08 170.044 162.98 169.523 162.78C169.016 162.566 168.609 162.333 168.302 162.079C168.008 161.812 167.801 161.572 167.681 161.358C167.561 161.145 167.501 161.025 167.501 160.998L167.421 160.778L167.501 160.618C167.808 159.87 168.035 159.116 168.182 158.355C168.329 157.581 168.402 156.781 168.402 155.953C168.402 155.393 168.369 154.832 168.302 154.271C168.248 153.698 168.148 153.11 168.002 152.51V152.25C168.162 151.596 168.288 150.955 168.382 150.328C168.489 149.687 168.542 149.046 168.542 148.406C168.542 147.685 168.482 146.984 168.362 146.304C168.242 145.623 168.082 144.942 167.881 144.262L167.841 144.102L167.921 143.941C168.495 142.473 168.782 141.012 168.782 139.557C168.782 138.97 168.736 138.389 168.642 137.815C168.562 137.242 168.429 136.654 168.242 136.054L168.162 135.813L168.322 135.613C168.335 135.6 168.415 135.52 168.562 135.373C168.709 135.213 168.929 135.046 169.223 134.873C169.53 134.686 169.91 134.526 170.364 134.392C170.818 134.245 171.358 134.172 171.985 134.172C172.626 134.172 173.18 134.259 173.647 134.432C174.114 134.592 174.501 134.772 174.808 134.973C175.128 135.173 175.369 135.36 175.529 135.533C175.689 135.707 175.776 135.8 175.789 135.813L175.989 136.014ZM210.304 159.717L210.224 159.917C210.224 159.93 210.158 160.064 210.024 160.317C209.904 160.571 209.67 160.851 209.323 161.158C208.99 161.452 208.523 161.725 207.922 161.979C207.335 162.219 206.581 162.339 205.66 162.339C205.059 162.339 204.552 162.273 204.138 162.139C203.725 161.992 203.371 161.812 203.077 161.599C202.463 161.692 201.856 161.826 201.256 161.999C200.668 162.159 200.088 162.373 199.514 162.64L199.394 162.72L199.274 162.68C198.94 162.68 198.62 162.666 198.313 162.64C198.019 162.613 197.712 162.6 197.392 162.6C196.311 162.6 195.196 162.713 194.049 162.94C192.914 163.167 191.893 163.514 190.986 163.981L190.785 164.061L190.625 164.021C190.665 164.034 190.565 163.994 190.325 163.901C190.085 163.807 189.804 163.634 189.484 163.38C189.164 163.14 188.85 162.806 188.543 162.379C188.25 161.939 188.069 161.378 188.003 160.698C187.642 160.498 187.342 160.284 187.102 160.057C186.875 159.817 186.688 159.597 186.541 159.396C186.408 159.196 186.314 159.029 186.261 158.896C186.208 158.749 186.181 158.669 186.181 158.656L186.141 158.456L186.221 158.275C186.474 157.822 186.695 157.395 186.882 156.994C187.068 156.594 187.222 156.207 187.342 155.833C187.462 155.446 187.549 155.059 187.602 154.672C187.669 154.271 187.702 153.838 187.702 153.371C187.702 152.823 187.662 152.209 187.582 151.529L187.622 151.269C187.969 150.428 188.223 149.647 188.383 148.926C188.557 148.206 188.643 147.485 188.643 146.764C188.643 146.35 188.617 145.93 188.563 145.503C188.51 145.062 188.443 144.609 188.363 144.142L188.323 143.941L188.403 143.821C188.71 143.221 188.964 142.673 189.164 142.18C189.364 141.673 189.517 141.165 189.624 140.658C189.424 140.391 189.251 140.038 189.104 139.597C188.97 139.143 188.904 138.596 188.904 137.956C188.904 137.101 189.01 136.407 189.224 135.874C189.451 135.326 189.698 134.899 189.965 134.592C190.245 134.285 190.498 134.078 190.725 133.972C190.952 133.865 191.079 133.812 191.106 133.812L191.306 133.731L191.486 133.812C192.18 134.159 192.881 134.412 193.588 134.572C194.295 134.719 195.043 134.792 195.83 134.792C196.151 134.792 196.524 134.792 196.951 134.792C197.378 134.779 197.765 134.712 198.113 134.592L198.293 134.552L198.453 134.632C199.174 134.966 199.841 135.22 200.455 135.393C201.069 135.567 201.683 135.667 202.297 135.693C202.63 135.547 203.004 135.413 203.418 135.293C203.831 135.173 204.305 135.113 204.839 135.113C205.373 135.113 205.847 135.18 206.26 135.313C206.674 135.433 207.021 135.573 207.301 135.733C207.595 135.894 207.815 136.04 207.962 136.174C208.122 136.307 208.216 136.381 208.242 136.394L208.443 136.594L208.363 136.834C208.216 137.422 208.102 137.982 208.022 138.516C207.955 139.037 207.922 139.544 207.922 140.038C207.922 140.705 207.989 141.352 208.122 141.979C208.269 142.593 208.476 143.234 208.743 143.901L208.823 144.021L208.783 144.182C208.703 144.689 208.636 145.176 208.583 145.643C208.529 146.097 208.503 146.551 208.503 147.004C208.503 147.872 208.589 148.706 208.763 149.507C208.95 150.294 209.23 151.088 209.604 151.889L209.684 152.009L209.604 152.209C209.457 152.797 209.343 153.344 209.263 153.851C209.183 154.345 209.143 154.825 209.143 155.292C209.143 156 209.23 156.694 209.404 157.375C209.577 158.042 209.851 158.769 210.224 159.557L210.304 159.717ZM196.071 144.722L196.03 144.842C195.643 145.75 195.363 146.577 195.19 147.325C195.016 148.059 194.929 148.786 194.929 149.507C194.929 149.934 194.956 150.361 195.009 150.788C195.063 151.215 195.143 151.662 195.25 152.129L195.29 152.29L195.21 152.47C194.823 153.244 194.522 153.931 194.309 154.532C194.109 155.119 193.988 155.726 193.948 156.354C194.269 156.313 194.616 156.267 194.989 156.213C195.363 156.16 195.724 156.1 196.071 156.033C196.431 155.953 196.765 155.86 197.071 155.753C197.392 155.646 197.659 155.519 197.872 155.373L198.032 155.292L198.193 155.333C198.66 155.439 199.113 155.513 199.554 155.553C200.008 155.593 200.448 155.613 200.875 155.613C201.462 155.613 202.05 155.573 202.637 155.493C202.57 155.106 202.483 154.705 202.377 154.292C202.283 153.864 202.163 153.417 202.016 152.95L201.976 152.71C202.136 151.816 202.217 150.942 202.217 150.087C202.217 149.22 202.123 148.392 201.936 147.605C201.763 146.804 201.502 145.99 201.155 145.163L201.075 145.002L201.115 144.802C201.262 144.282 201.382 143.775 201.476 143.281C201.569 142.787 201.629 142.293 201.656 141.799C201.469 141.773 201.282 141.753 201.095 141.739C200.922 141.726 200.748 141.719 200.575 141.719C200.201 141.719 199.828 141.746 199.454 141.799C199.08 141.853 198.68 141.933 198.253 142.04L197.952 142C197.565 141.933 197.212 141.859 196.891 141.779C196.571 141.686 196.244 141.599 195.91 141.519C195.884 141.719 195.87 141.913 195.87 142.1C195.87 142.286 195.87 142.473 195.87 142.66C195.87 142.954 195.884 143.254 195.91 143.561C195.95 143.868 196.004 144.195 196.071 144.542V144.722Z" fill="url(#paint2_angular_8_28)" shape-rendering="crispEdges"/>
</g>
<defs>
<filter id="filter0_d_8_28" x="29.6297" y="29.9656" width="124.981" height="118.693" filterUnits="userSpaceOnUse" color-interpolation-filters="sRGB">
<feFlood flood-opacity="0" result="BackgroundImageFix"/>
<feColorMatrix in="SourceAlpha" type="matrix" values="0 0 0 0 0 0 0 0 0 0 0 0 0 0 0 0 0 0 127 0" result="hardAlpha"/>
<feOffset dx="3" dy="7"/>
<feGaussianBlur stdDeviation="6"/>
<feComposite in2="hardAlpha" operator="out"/>
<feColorMatrix type="matrix" values="0 0 0 0 0 0 0 0 0 0 0 0 0 0 0 0 0 0 0.52 0"/>
<feBlend mode="normal" in2="BackgroundImageFix" result="effect1_dropShadow_8_28"/>
<feBlend mode="normal" in="SourceGraphic" in2="effect1_dropShadow_8_28" result="shape"/>
</filter>
<filter id="filter1_d_8_28" x="42.0801" y="126.271" width="188.224" height="58.9902" filterUnits="userSpaceOnUse" color-interpolation-filters="sRGB">
<feFlood flood-opacity="0" result="BackgroundImageFix"/>
<feColorMatrix in="SourceAlpha" type="matrix" values="0 0 0 0 0 0 0 0 0 0 0 0 0 0 0 0 0 0 127 0" result="hardAlpha"/>
<feOffset dx="6" dy="7"/>
<feGaussianBlur stdDeviation="7"/>
<feComposite in2="hardAlpha" operator="out"/>
<feColorMatrix type="matrix" values="0 0 0 0 0 0 0 0 0 0 0 0 0 0 0 0 0 0 1 0"/>
<feBlend mode="normal" in2="BackgroundImageFix" result="effect1_dropShadow_8_28"/>
<feBlend mode="normal" in="SourceGraphic" in2="effect1_dropShadow_8_28" result="shape"/>
</filter>
<radialGradient id="paint0_angular_8_28" cx="0" cy="0" r="1" gradientUnits="userSpaceOnUse" gradientTransform="translate(78.3806 71.3082) rotate(40.3371) scale(71.8892 34.1501)">
<stop stop-color="#B50B1F"/>
<stop offset="0.223958" stop-color="#B234EE"/>
<stop offset="0.427083" stop-color="#34C1EE"/>
<stop offset="0.645833" stop-color="#2BB509"/>
<stop offset="0.8125" stop-color="#EAEE34"/>
<stop offset="1" stop-color="#EE3434"/>
</radialGradient>
<linearGradient id="paint1_linear_8_28" x1="141.068" y1="12.3345" x2="125.977" y2="134.402" gradientUnits="userSpaceOnUse">
<stop stop-color="#4947AC"/>
<stop offset="0.515625" stop-color="#1DA407" stop-opacity="0.895833"/>
<stop offset="1" stop-color="#810D0D"/>
</linearGradient>
<radialGradient id="paint2_angular_8_28" cx="0" cy="0" r="1" gradientUnits="userSpaceOnUse" gradientTransform="translate(131.5 147.5) rotate(90) scale(26.5 81.5)">
<stop offset="0.03135" stop-color="#0FD4FF" stop-opacity="0.98"/>
<stop offset="0.102679" stop-color="#EC11E3" stop-opacity="0.98"/>
<stop offset="0.239583" stop-color="#A92678" stop-opacity="0.991614"/>
<stop offset="0.425802" stop-color="#17E812"/>
<stop offset="0.601609" stop-color="#9354F9" stop-opacity="0.98"/>
<stop offset="0.775364" stop-color="#0CB870" stop-opacity="0.98"/>
<stop offset="0.936159" stop-color="#FF1678" stop-opacity="0.98"/>
</radialGradient>
</defs>
</svg>
