<svg width="969" height="144" viewBox="0 0 969 144" fill="none" xmlns="http://www.w3.org/2000/svg">
<path d="M964.033 1H1V5.61372L1.9918 10.2274L6.95077 18.4296L10.9179 23.0433L23.8113 34.3213L40.6718 43.0361L49.598 46.6245L57.5323 50.213L75.3846 55.3393H80.3436L81.3354 56.3646H86.2944V57.3899H90.2615L92.2451 58.4152H98.1959L99.1877 59.9531H105.138H112.081V61.491H122.991V62.5162H131.917V63.5415H141.835V64.5668H152.745V65.5921L169.605 66.6173H186.466C188.449 66.6173 186.862 67.13 188.449 67.13C190.036 67.13 197.706 67.6426 202.334 67.6426H204.318C206.092 67.6426 216.881 68.497 222.17 68.6679L249.941 69.1805L281.678 70.2058L311.432 71.231H327.301L345.153 72.2563L361.022 73.2816L376.89 74.3069L396.726 75.8448L410.611 76.87L424.496 78.4079L435.406 79.4332L448.3 80.4585L465.16 82.509L483.012 85.0722L495.906 87.1227L510.783 90.7112L532.602 95.3249L548.471 98.9134L562.356 101.989L574.258 105.578L581.2 108.141L586.159 109.166L588.143 110.191L594.093 110.704V111.729L595.085 112.242H598.061L599.052 113.267H602.028V114.292H606.987V115.318H610.954L611.448 116.856H618.888V118.393H625.831V119.419V120.444H632.773V121.469H637.732V122.495H642.691V123.52H648.642V124.545H653.601V125.57H662.527V126.596H665.503H670.462V127.621H678.396V128.646H683.355V129.671H690.297V130.697H697.24L698.232 131.722H705.174L706.166 132.747H713.109L714.101 133.773H721.043L722.035 134.798H724.019H729.969L730.961 135.823H737.904V136.848H747.822V137.874H757.74V138.899H764.682V139.924H772.617V140.949H788.485L789.477 141.975L806.338 142.23V143H831.132H869.812H884.689V141.975H901.55V140.949H917.419V139.924H927.337V138.899H932.295H940.23V137.874H948.164V136.848H956.099V135.823H964.033V134.798H968L964.033 1Z" fill="url(#paint0_linear_1_6)" stroke="black"/>
<defs>
<linearGradient id="paint0_linear_1_6" x1="867.303" y1="27.4747" x2="39.0938" y2="5.39092" gradientUnits="userSpaceOnUse">
<stop stop-color="#908DF6"/>
<stop offset="0.546875" stop-color="#6762F4"/>
<stop offset="1" stop-color="#413CF0"/>
</linearGradient>
</defs>
</svg>
