<svg width="311" height="344" viewBox="0 0 311 344" fill="none" xmlns="http://www.w3.org/2000/svg">
<path d="M64.8548 124.749C-5.99999 -15.9949 204 237.928 256 124.749C308 11.5698 336.685 259.891 277.342 303.771C218 347.652 202.003 218.627 151 274.503C99.9965 330.378 0 303.771 0 303.771C0 303.771 135.71 265.493 64.8548 124.749Z" fill="url(#paint0_linear_1_11)"/>
<path d="M119.024 44.9745L155.812 119.909H157.264L194.052 44.9745H209.783L164.283 133.992H148.793L92 83.4467L119.024 44.9745Z" fill="url(#paint1_linear_1_11)"/>
<path d="M153.696 124.188C153.696 124.188 217.111 -15.5103 168.067 1.42396C119.024 18.3583 233.163 50.0937 233.163 50.0937C240.083 51.9435 245.616 54.598 249.763 58.0573C253.95 61.4402 256.549 65.3129 257.562 69.6757C258.574 74.0384 257.833 78.6288 255.337 83.4467C252.405 89.106 247.814 93.4072 241.562 96.3506C235.417 99.3224 228.436 100.634 220.617 100.285L249.763 133.992L209.107 139L205.172 97.4625L186.488 92.4682L168.067 128.029L153.696 124.188ZM191.302 83.1763L209.783 79.4768C215.745 81.0705 224.465 90.5177 229.471 88.8086C234.516 87.023 226.052 78.7507 228.35 74.3151C230.687 69.803 242.875 70.8866 240.642 67.2424C238.409 63.5982 226.579 68.836 220.617 67.2424L206.633 53.5801L191.302 83.1763Z" fill="url(#paint2_linear_1_11)"/>
<defs>
<linearGradient id="paint0_linear_1_11" x1="205.5" y1="292" x2="127" y2="177" gradientUnits="userSpaceOnUse">
<stop offset="0.546875" stop-color="white"/>
<stop offset="0.614583" stop-color="#EE57C4"/>
</linearGradient>
<linearGradient id="paint1_linear_1_11" x1="216.5" y1="93" x2="213.5" y2="61.5" gradientUnits="userSpaceOnUse">
<stop stop-color="#E73ECC"/>
<stop offset="1" stop-color="white"/>
</linearGradient>
<linearGradient id="paint2_linear_1_11" x1="216.5" y1="93" x2="213.5" y2="61.5" gradientUnits="userSpaceOnUse">
<stop stop-color="#E73ECC"/>
<stop offset="1" stop-color="white"/>
</linearGradient>
</defs>
</svg>
